M48
INCH,LZ
;FILE_FORMAT=2:4
;TYPE=PLATED
;Layer: PTH_Through
;EasyEDA v6.5.3, 2022-05-10 11:38:20
;ab62d8b6a5be4e798c685c15e3818e9c,b03e5731a7a74599b12e1065cb71c7ef,10
;Gerber Generator version 0.2
;Holesize 1 = 0.0120 inch
T01C0.0120
;Holesize 2 = 0.0400 inch
T02C0.0400
%
G05
G90
T01
X015450Y041650
X013500Y040900
X013500Y040500
X018500Y041350
X018500Y041750
X018500Y042200
X018950Y042200
X019350Y042200
X021500Y041500
X013050Y040900
X015450Y040400
X015450Y042100
X015450Y042550
X009750Y044100
X010150Y044100
X010600Y043400
X011300Y042600
X011300Y041850
X011300Y041150
X022000Y041500
X020800Y042750
X008700Y040500
T02
X023701Y045250G85X023699Y045250
X022701Y045250G85X022699Y045250
X021701Y045250G85X021699Y045250
X020701Y045250G85X020699Y045250
X019701Y045250G85X019699Y045250
X018701Y045250G85X018699Y045250
X017701Y045250G85X017699Y045250
X016701Y045250G85X016699Y045250
X015701Y045250G85X015699Y045250
X014701Y045250G85X014699Y045250
X013701Y045250G85X013699Y045250
X012701Y045250G85X012699Y045250
X011701Y045250G85X011699Y045250
X010701Y045250G85X010699Y045250
X009701Y045250G85X009699Y045250
X008701Y045250G85X008699Y045250
X007701Y045250G85X007699Y045250
X006701Y045250G85X006699Y045250
X006699Y039250G85X006701Y039250
X007699Y039250G85X007701Y039250
X008699Y039250G85X008701Y039250
X009699Y039250G85X009701Y039250
X010699Y039250G85X010701Y039250
X011699Y039250G85X011701Y039250
X012699Y039250G85X012701Y039250
X013699Y039250G85X013701Y039250
X014699Y039250G85X014701Y039250
X015699Y039250G85X015701Y039250
X016699Y039250G85X016701Y039250
X017699Y039250G85X017701Y039250
X018699Y039250G85X018701Y039250
X019699Y039250G85X019701Y039250
X020699Y039250G85X020701Y039250
X021699Y039250G85X021701Y039250
X022699Y039250G85X022701Y039250
X023699Y039250G85X023701Y039250
M30
