G04 Layer: TopLayer*
G04 EasyEDA v6.5.3, 2022-05-10 11:38:20*
G04 ab62d8b6a5be4e798c685c15e3818e9c,b03e5731a7a74599b12e1065cb71c7ef,10*
G04 Gerber Generator version 0.2*
G04 Scale: 100 percent, Rotated: No, Reflected: No *
G04 Dimensions in inches *
G04 leading zeros omitted , absolute positions ,3 integer and 6 decimal *
%FSLAX36Y36*%
%MOIN*%

%ADD10C,0.0100*%
%ADD11C,0.0240*%

%LPD*%
G36*
X614200Y3875200D02*
G01*
X612660Y3875500D01*
X611380Y3876380D01*
X610500Y3877660D01*
X610200Y3879200D01*
X610200Y4570800D01*
X610500Y4572340D01*
X611380Y4573620D01*
X612660Y4574500D01*
X614200Y4574800D01*
X2415800Y4574800D01*
X2417340Y4574500D01*
X2418620Y4573620D01*
X2419500Y4572340D01*
X2419800Y4570800D01*
X2419800Y3879200D01*
X2419500Y3877660D01*
X2418620Y3876380D01*
X2417340Y3875500D01*
X2415800Y3875200D01*
G37*

%LPC*%
G36*
X1558720Y3887080D02*
G01*
X1581279Y3887080D01*
X1583460Y3887300D01*
X1585380Y3887880D01*
X1587140Y3888820D01*
X1588839Y3890200D01*
X1604800Y3906160D01*
X1606180Y3907860D01*
X1607120Y3909620D01*
X1607700Y3911540D01*
X1607920Y3913720D01*
X1607920Y3936280D01*
X1607700Y3938460D01*
X1607120Y3940380D01*
X1606180Y3942140D01*
X1604800Y3943840D01*
X1588839Y3959800D01*
X1587140Y3961180D01*
X1585380Y3962120D01*
X1583460Y3962700D01*
X1581279Y3962919D01*
X1558720Y3962919D01*
X1556540Y3962700D01*
X1554620Y3962120D01*
X1552860Y3961180D01*
X1551160Y3959800D01*
X1535220Y3943820D01*
X1533820Y3942140D01*
X1532880Y3940380D01*
X1532300Y3938460D01*
X1532100Y3936280D01*
X1532100Y3913720D01*
X1532300Y3911540D01*
X1532880Y3909620D01*
X1533820Y3907860D01*
X1535220Y3906180D01*
X1551160Y3890200D01*
X1552860Y3888820D01*
X1554620Y3887880D01*
X1556540Y3887300D01*
G37*
G36*
X958720Y3887080D02*
G01*
X981280Y3887080D01*
X983460Y3887300D01*
X985380Y3887880D01*
X987140Y3888820D01*
X988840Y3890200D01*
X1004800Y3906160D01*
X1006180Y3907860D01*
X1007120Y3909620D01*
X1007700Y3911540D01*
X1007920Y3913720D01*
X1007920Y3936280D01*
X1007700Y3938460D01*
X1007120Y3940380D01*
X1006180Y3942140D01*
X1004800Y3943840D01*
X988840Y3959800D01*
X987140Y3961180D01*
X985380Y3962120D01*
X983460Y3962700D01*
X981280Y3962919D01*
X958720Y3962919D01*
X956540Y3962700D01*
X954620Y3962120D01*
X952860Y3961180D01*
X951160Y3959800D01*
X935220Y3943820D01*
X933820Y3942140D01*
X932880Y3940380D01*
X932300Y3938460D01*
X932099Y3936280D01*
X932099Y3913720D01*
X932300Y3911540D01*
X932880Y3909620D01*
X933820Y3907860D01*
X935220Y3906180D01*
X951160Y3890200D01*
X952860Y3888820D01*
X954620Y3887880D01*
X956540Y3887300D01*
G37*
G36*
X1658720Y3887080D02*
G01*
X1681279Y3887080D01*
X1683460Y3887300D01*
X1685380Y3887880D01*
X1687140Y3888820D01*
X1688839Y3890200D01*
X1704800Y3906160D01*
X1706180Y3907860D01*
X1707120Y3909620D01*
X1707700Y3911540D01*
X1707920Y3913720D01*
X1707920Y3936280D01*
X1707700Y3938460D01*
X1707120Y3940380D01*
X1706180Y3942140D01*
X1704800Y3943840D01*
X1688839Y3959800D01*
X1687140Y3961180D01*
X1685380Y3962120D01*
X1683460Y3962700D01*
X1681279Y3962919D01*
X1658720Y3962919D01*
X1656540Y3962700D01*
X1654620Y3962120D01*
X1652860Y3961180D01*
X1651160Y3959800D01*
X1635220Y3943820D01*
X1633820Y3942140D01*
X1632880Y3940380D01*
X1632300Y3938460D01*
X1632100Y3936280D01*
X1632100Y3913720D01*
X1632300Y3911540D01*
X1632880Y3909620D01*
X1633820Y3907860D01*
X1635220Y3906180D01*
X1651160Y3890200D01*
X1652860Y3888820D01*
X1654620Y3887880D01*
X1656540Y3887300D01*
G37*
G36*
X658720Y3887080D02*
G01*
X681280Y3887080D01*
X683460Y3887300D01*
X685380Y3887880D01*
X687140Y3888820D01*
X688840Y3890200D01*
X704800Y3906160D01*
X706180Y3907860D01*
X707120Y3909620D01*
X707700Y3911540D01*
X707920Y3913720D01*
X707920Y3936259D01*
X707620Y3939000D01*
X707660Y3940179D01*
X708060Y3941300D01*
X708760Y3942260D01*
X735120Y3968620D01*
X736420Y3969500D01*
X737960Y3969800D01*
X753020Y3969800D01*
X754720Y3969420D01*
X756100Y3968340D01*
X756900Y3966780D01*
X756940Y3965020D01*
X756220Y3963420D01*
X754900Y3962280D01*
X752860Y3961180D01*
X751160Y3959800D01*
X735220Y3943820D01*
X733820Y3942140D01*
X732880Y3940380D01*
X732300Y3938460D01*
X732099Y3936280D01*
X732099Y3913720D01*
X732300Y3911540D01*
X732880Y3909620D01*
X733820Y3907860D01*
X735220Y3906180D01*
X751160Y3890200D01*
X752860Y3888820D01*
X754620Y3887880D01*
X756540Y3887300D01*
X758720Y3887080D01*
X781280Y3887080D01*
X783460Y3887300D01*
X785380Y3887880D01*
X787140Y3888820D01*
X788840Y3890200D01*
X804800Y3906160D01*
X806180Y3907860D01*
X807120Y3909620D01*
X807700Y3911540D01*
X807920Y3913720D01*
X807920Y3936280D01*
X807700Y3938460D01*
X807120Y3940380D01*
X806180Y3942140D01*
X804800Y3943840D01*
X788840Y3959800D01*
X787140Y3961180D01*
X785100Y3962280D01*
X783780Y3963420D01*
X783060Y3965020D01*
X783100Y3966780D01*
X783900Y3968340D01*
X785280Y3969420D01*
X786979Y3969800D01*
X850800Y3969800D01*
X852340Y3969500D01*
X853620Y3968620D01*
X854500Y3967340D01*
X854800Y3965800D01*
X854800Y3964620D01*
X854400Y3962880D01*
X853300Y3961500D01*
X851140Y3959780D01*
X835220Y3943820D01*
X833820Y3942140D01*
X832880Y3940380D01*
X832300Y3938460D01*
X832099Y3936280D01*
X832099Y3913720D01*
X832300Y3911540D01*
X832880Y3909620D01*
X833820Y3907860D01*
X835220Y3906180D01*
X851160Y3890200D01*
X852860Y3888820D01*
X854620Y3887880D01*
X856540Y3887300D01*
X858720Y3887080D01*
X881280Y3887080D01*
X883460Y3887300D01*
X885380Y3887880D01*
X887140Y3888820D01*
X888840Y3890200D01*
X904800Y3906160D01*
X906180Y3907860D01*
X907120Y3909620D01*
X907700Y3911540D01*
X907920Y3913720D01*
X907920Y3936280D01*
X907700Y3938460D01*
X907120Y3940380D01*
X906180Y3942140D01*
X904800Y3943840D01*
X888840Y3959800D01*
X886840Y3961440D01*
X885879Y3962580D01*
X885400Y3964000D01*
X885240Y3965280D01*
X885340Y3966860D01*
X886060Y3968279D01*
X887280Y3969320D01*
X888820Y3969780D01*
X891979Y3970100D01*
X894100Y3970840D01*
X896020Y3972040D01*
X897640Y3973660D01*
X898860Y3975580D01*
X899599Y3977740D01*
X899880Y3980220D01*
X899880Y3991620D01*
X899659Y3993820D01*
X899080Y3995740D01*
X898580Y3996660D01*
X898139Y3997960D01*
X898180Y3999340D01*
X898920Y4001040D01*
X899620Y4003120D01*
X899880Y4005539D01*
X899880Y4024780D01*
X899599Y4027260D01*
X898860Y4029420D01*
X897640Y4031340D01*
X896020Y4032960D01*
X894100Y4034160D01*
X892159Y4034840D01*
X890759Y4035700D01*
X889800Y4037060D01*
X889500Y4038700D01*
X889860Y4040299D01*
X890840Y4042420D01*
X891840Y4046139D01*
X892180Y4050000D01*
X891840Y4053860D01*
X890840Y4057580D01*
X889220Y4061100D01*
X887000Y4064260D01*
X884260Y4067000D01*
X881100Y4069220D01*
X877580Y4070840D01*
X873860Y4071840D01*
X870000Y4072180D01*
X866140Y4071840D01*
X862420Y4070840D01*
X858900Y4069220D01*
X855740Y4067000D01*
X853000Y4064260D01*
X850780Y4061100D01*
X849160Y4057580D01*
X848160Y4053860D01*
X847820Y4050000D01*
X848160Y4046139D01*
X849160Y4042420D01*
X850140Y4040299D01*
X850500Y4038700D01*
X850200Y4037060D01*
X849240Y4035700D01*
X847840Y4034840D01*
X845900Y4034160D01*
X843980Y4032960D01*
X842360Y4031340D01*
X841140Y4029420D01*
X840400Y4027260D01*
X840120Y4024780D01*
X840120Y4005539D01*
X840220Y4004640D01*
X840040Y4002980D01*
X839220Y4001520D01*
X837860Y4000539D01*
X836240Y4000200D01*
X730200Y4000200D01*
X727039Y3999880D01*
X724200Y3999020D01*
X721560Y3997620D01*
X719120Y3995600D01*
X687260Y3963759D01*
X686300Y3963060D01*
X685180Y3962660D01*
X684000Y3962620D01*
X681260Y3962919D01*
X658720Y3962919D01*
X656540Y3962700D01*
X654620Y3962120D01*
X652860Y3961180D01*
X651160Y3959800D01*
X635220Y3943820D01*
X633820Y3942140D01*
X632880Y3940380D01*
X632300Y3938460D01*
X632100Y3936280D01*
X632100Y3913720D01*
X632300Y3911540D01*
X632880Y3909620D01*
X633820Y3907860D01*
X635220Y3906180D01*
X651160Y3890200D01*
X652860Y3888820D01*
X654620Y3887880D01*
X656540Y3887300D01*
G37*
G36*
X1058720Y3887080D02*
G01*
X1081280Y3887080D01*
X1083460Y3887300D01*
X1085380Y3887880D01*
X1087140Y3888820D01*
X1088840Y3890200D01*
X1104800Y3906160D01*
X1106180Y3907860D01*
X1107120Y3909620D01*
X1107700Y3911540D01*
X1107920Y3913720D01*
X1107920Y3936280D01*
X1107700Y3938460D01*
X1107120Y3940380D01*
X1106180Y3942140D01*
X1104800Y3943840D01*
X1088840Y3959800D01*
X1087140Y3961180D01*
X1085380Y3962120D01*
X1083460Y3962700D01*
X1081280Y3962919D01*
X1058740Y3962919D01*
X1056000Y3962620D01*
X1054820Y3962660D01*
X1053700Y3963060D01*
X1052740Y3963759D01*
X956380Y4060120D01*
X955500Y4061420D01*
X955200Y4062960D01*
X955200Y4389200D01*
X955580Y4390900D01*
X956620Y4392260D01*
X958160Y4393060D01*
X959900Y4393140D01*
X961500Y4392480D01*
X963900Y4390780D01*
X967420Y4389160D01*
X971140Y4388160D01*
X974300Y4387880D01*
X975639Y4387520D01*
X976780Y4386720D01*
X1002860Y4360660D01*
X1005300Y4358640D01*
X1007940Y4357240D01*
X1010780Y4356380D01*
X1013940Y4356060D01*
X1036820Y4356060D01*
X1038379Y4355740D01*
X1039700Y4354840D01*
X1040560Y4353500D01*
X1040819Y4351920D01*
X1040460Y4350360D01*
X1039160Y4347580D01*
X1038160Y4343860D01*
X1037820Y4340000D01*
X1038160Y4336140D01*
X1039160Y4332420D01*
X1040780Y4328900D01*
X1043000Y4325740D01*
X1045740Y4323000D01*
X1048900Y4320780D01*
X1052420Y4319160D01*
X1056140Y4318160D01*
X1060000Y4317820D01*
X1061140Y4317920D01*
X1062660Y4317760D01*
X1065140Y4317000D01*
X1066160Y4316900D01*
X1067600Y4316480D01*
X1068780Y4315560D01*
X1069540Y4314260D01*
X1069760Y4312780D01*
X1069440Y4311320D01*
X1068600Y4310100D01*
X1044400Y4285880D01*
X1042380Y4283440D01*
X1040980Y4280800D01*
X1040120Y4277960D01*
X1039800Y4274800D01*
X1039800Y4040200D01*
X1040120Y4037040D01*
X1040980Y4034200D01*
X1042380Y4031560D01*
X1044400Y4029120D01*
X1131240Y3942260D01*
X1132200Y3940760D01*
X1132400Y3938980D01*
X1132100Y3936259D01*
X1132100Y3913720D01*
X1132300Y3911540D01*
X1132880Y3909620D01*
X1133820Y3907860D01*
X1135220Y3906180D01*
X1151160Y3890200D01*
X1152860Y3888820D01*
X1154620Y3887880D01*
X1156540Y3887300D01*
X1158720Y3887080D01*
X1181280Y3887080D01*
X1183460Y3887300D01*
X1185380Y3887880D01*
X1187140Y3888820D01*
X1188840Y3890200D01*
X1204800Y3906160D01*
X1206180Y3907860D01*
X1207120Y3909620D01*
X1207700Y3911540D01*
X1207920Y3913720D01*
X1207920Y3936280D01*
X1207700Y3938460D01*
X1207120Y3940380D01*
X1206180Y3942140D01*
X1204800Y3943840D01*
X1190660Y3957980D01*
X1189780Y3959260D01*
X1189480Y3960800D01*
X1189780Y3962340D01*
X1190660Y3963620D01*
X1191960Y3964500D01*
X1193480Y3964800D01*
X1207040Y3964800D01*
X1208580Y3964500D01*
X1209880Y3963620D01*
X1231240Y3942260D01*
X1232200Y3940760D01*
X1232400Y3938980D01*
X1232100Y3936259D01*
X1232100Y3913720D01*
X1232300Y3911540D01*
X1232880Y3909620D01*
X1233820Y3907860D01*
X1235220Y3906180D01*
X1251160Y3890200D01*
X1252860Y3888820D01*
X1254620Y3887880D01*
X1256540Y3887300D01*
X1258720Y3887080D01*
X1281279Y3887080D01*
X1283460Y3887300D01*
X1285380Y3887880D01*
X1287140Y3888820D01*
X1288839Y3890200D01*
X1304800Y3906160D01*
X1306180Y3907860D01*
X1307120Y3909620D01*
X1307700Y3911540D01*
X1307920Y3913720D01*
X1307920Y3936280D01*
X1307700Y3938460D01*
X1307120Y3940380D01*
X1306180Y3942140D01*
X1304800Y3943840D01*
X1288839Y3959800D01*
X1287140Y3961180D01*
X1285380Y3962120D01*
X1283460Y3962700D01*
X1281279Y3962919D01*
X1258740Y3962919D01*
X1256000Y3962620D01*
X1254820Y3962660D01*
X1253700Y3963060D01*
X1252740Y3963759D01*
X1241200Y3975299D01*
X1240340Y3976600D01*
X1240040Y3978120D01*
X1240340Y3979660D01*
X1241200Y3980960D01*
X1242500Y3981820D01*
X1244040Y3982120D01*
X1250520Y3982120D01*
X1253000Y3982400D01*
X1255160Y3983159D01*
X1257080Y3984360D01*
X1258700Y3985980D01*
X1259900Y3987900D01*
X1260660Y3990059D01*
X1260940Y3992540D01*
X1260940Y4001940D01*
X1260660Y4004420D01*
X1260200Y4005760D01*
X1259960Y4007080D01*
X1260200Y4008420D01*
X1260660Y4009740D01*
X1260940Y4012240D01*
X1260940Y4017400D01*
X1261240Y4018940D01*
X1262120Y4020240D01*
X1263420Y4021100D01*
X1264940Y4021400D01*
X1336420Y4021400D01*
X1339580Y4021720D01*
X1342420Y4022580D01*
X1345040Y4023980D01*
X1347500Y4026000D01*
X1348220Y4026720D01*
X1349360Y4027520D01*
X1350700Y4027880D01*
X1353860Y4028159D01*
X1357580Y4029160D01*
X1361100Y4030779D01*
X1364259Y4033000D01*
X1367000Y4035740D01*
X1369220Y4038900D01*
X1370840Y4042420D01*
X1371840Y4046139D01*
X1372180Y4050000D01*
X1371840Y4053860D01*
X1370840Y4057580D01*
X1369220Y4061100D01*
X1367000Y4064260D01*
X1364079Y4067180D01*
X1363220Y4068460D01*
X1362920Y4070000D01*
X1363220Y4071540D01*
X1364079Y4072820D01*
X1367000Y4075740D01*
X1369220Y4078900D01*
X1370100Y4080820D01*
X1371000Y4082040D01*
X1372300Y4082860D01*
X1373800Y4083120D01*
X1375280Y4082799D01*
X1376560Y4081940D01*
X1393620Y4064880D01*
X1394500Y4063580D01*
X1394800Y4062040D01*
X1394800Y3972960D01*
X1394500Y3971420D01*
X1393620Y3970120D01*
X1387260Y3963759D01*
X1386300Y3963060D01*
X1385180Y3962660D01*
X1384000Y3962620D01*
X1381260Y3962919D01*
X1358720Y3962919D01*
X1356540Y3962700D01*
X1354620Y3962120D01*
X1352860Y3961180D01*
X1351160Y3959800D01*
X1335220Y3943820D01*
X1333820Y3942140D01*
X1332880Y3940380D01*
X1332300Y3938460D01*
X1332100Y3936280D01*
X1332100Y3913720D01*
X1332300Y3911540D01*
X1332880Y3909620D01*
X1333820Y3907860D01*
X1335220Y3906180D01*
X1351160Y3890200D01*
X1352860Y3888820D01*
X1354620Y3887880D01*
X1356540Y3887300D01*
X1358720Y3887080D01*
X1381279Y3887080D01*
X1383460Y3887300D01*
X1385380Y3887880D01*
X1387140Y3888820D01*
X1388839Y3890200D01*
X1404800Y3906160D01*
X1406180Y3907860D01*
X1407120Y3909620D01*
X1407700Y3911540D01*
X1407920Y3913720D01*
X1407920Y3936259D01*
X1407620Y3939000D01*
X1407660Y3940179D01*
X1408060Y3941300D01*
X1408760Y3942260D01*
X1420600Y3954120D01*
X1422620Y3956560D01*
X1424019Y3959200D01*
X1424880Y3962040D01*
X1425200Y3965200D01*
X1425200Y4063639D01*
X1425500Y4065179D01*
X1426380Y4066480D01*
X1427660Y4067340D01*
X1429199Y4067640D01*
X1430740Y4067340D01*
X1432020Y4066480D01*
X1453620Y4044880D01*
X1454500Y4043580D01*
X1454800Y4042040D01*
X1454800Y3964620D01*
X1454400Y3962880D01*
X1453300Y3961500D01*
X1451140Y3959780D01*
X1435220Y3943820D01*
X1433820Y3942140D01*
X1432880Y3940380D01*
X1432300Y3938460D01*
X1432100Y3936280D01*
X1432100Y3913720D01*
X1432300Y3911540D01*
X1432880Y3909620D01*
X1433820Y3907860D01*
X1435220Y3906180D01*
X1451160Y3890200D01*
X1452860Y3888820D01*
X1454620Y3887880D01*
X1456540Y3887300D01*
X1458720Y3887080D01*
X1481279Y3887080D01*
X1483460Y3887300D01*
X1485380Y3887880D01*
X1487140Y3888820D01*
X1488839Y3890200D01*
X1504800Y3906160D01*
X1506180Y3907860D01*
X1507120Y3909620D01*
X1507700Y3911540D01*
X1507920Y3913720D01*
X1507920Y3936280D01*
X1507700Y3938460D01*
X1507120Y3940380D01*
X1506180Y3942140D01*
X1504800Y3943840D01*
X1488839Y3959780D01*
X1486699Y3961500D01*
X1485600Y3962880D01*
X1485200Y3964620D01*
X1485200Y4033639D01*
X1485500Y4035179D01*
X1486380Y4036480D01*
X1487660Y4037340D01*
X1489199Y4037640D01*
X1490740Y4037340D01*
X1492020Y4036480D01*
X1539120Y3989400D01*
X1541560Y3987380D01*
X1544199Y3985980D01*
X1547040Y3985120D01*
X1550200Y3984800D01*
X1687040Y3984800D01*
X1688580Y3984500D01*
X1689880Y3983620D01*
X1731240Y3942260D01*
X1731940Y3941300D01*
X1732340Y3940179D01*
X1732380Y3939000D01*
X1732080Y3936259D01*
X1732080Y3913720D01*
X1732300Y3911540D01*
X1732880Y3909620D01*
X1733820Y3907860D01*
X1735200Y3906160D01*
X1751160Y3890200D01*
X1752860Y3888820D01*
X1754620Y3887880D01*
X1756540Y3887300D01*
X1758720Y3887080D01*
X1781279Y3887080D01*
X1783460Y3887300D01*
X1785380Y3887880D01*
X1787140Y3888820D01*
X1788839Y3890200D01*
X1804800Y3906160D01*
X1806180Y3907860D01*
X1807120Y3909620D01*
X1807700Y3911540D01*
X1807920Y3913720D01*
X1807920Y3936280D01*
X1807700Y3938460D01*
X1807120Y3940380D01*
X1806180Y3942140D01*
X1804800Y3943840D01*
X1788839Y3959800D01*
X1787140Y3961180D01*
X1785380Y3962120D01*
X1783460Y3962700D01*
X1781279Y3962919D01*
X1758740Y3962919D01*
X1756000Y3962620D01*
X1754820Y3962660D01*
X1753700Y3963060D01*
X1752740Y3963759D01*
X1718520Y3997980D01*
X1717660Y3999260D01*
X1717360Y4000800D01*
X1717660Y4002340D01*
X1718520Y4003620D01*
X1719820Y4004500D01*
X1721360Y4004800D01*
X1767040Y4004800D01*
X1768580Y4004500D01*
X1769880Y4003620D01*
X1831240Y3942260D01*
X1831940Y3941300D01*
X1832340Y3940179D01*
X1832380Y3939000D01*
X1832080Y3936259D01*
X1832080Y3913720D01*
X1832300Y3911540D01*
X1832880Y3909620D01*
X1833820Y3907860D01*
X1835200Y3906160D01*
X1851160Y3890200D01*
X1852860Y3888820D01*
X1854620Y3887880D01*
X1856540Y3887300D01*
X1858720Y3887080D01*
X1881279Y3887080D01*
X1883460Y3887300D01*
X1885380Y3887880D01*
X1887140Y3888820D01*
X1888839Y3890200D01*
X1904800Y3906160D01*
X1906180Y3907860D01*
X1907120Y3909620D01*
X1907700Y3911540D01*
X1907920Y3913720D01*
X1907920Y3920920D01*
X1908220Y3922460D01*
X1909100Y3923759D01*
X1910380Y3924620D01*
X1911920Y3924920D01*
X1913460Y3924620D01*
X1914740Y3923759D01*
X1919120Y3919400D01*
X1921560Y3917380D01*
X1924199Y3915980D01*
X1927040Y3915120D01*
X1928720Y3914940D01*
X1930240Y3914480D01*
X1931440Y3913480D01*
X1932180Y3912080D01*
X1932880Y3909600D01*
X1933820Y3907860D01*
X1935200Y3906160D01*
X1951160Y3890200D01*
X1952860Y3888820D01*
X1954620Y3887880D01*
X1956540Y3887300D01*
X1958720Y3887080D01*
X1981279Y3887080D01*
X1983460Y3887300D01*
X1985380Y3887880D01*
X1987140Y3888820D01*
X1988839Y3890200D01*
X2004800Y3906160D01*
X2006180Y3907860D01*
X2007120Y3909620D01*
X2007700Y3911540D01*
X2007920Y3913720D01*
X2007920Y3936280D01*
X2007700Y3938460D01*
X2007140Y3940340D01*
X2005840Y3942640D01*
X2005360Y3944220D01*
X2005540Y3945860D01*
X2006380Y3947300D01*
X2007720Y3948260D01*
X2009340Y3948600D01*
X2030660Y3948600D01*
X2032280Y3948260D01*
X2033620Y3947300D01*
X2034460Y3945860D01*
X2034640Y3944220D01*
X2034160Y3942640D01*
X2032860Y3940340D01*
X2032300Y3938460D01*
X2032080Y3936280D01*
X2032080Y3913720D01*
X2032300Y3911540D01*
X2032880Y3909620D01*
X2033820Y3907860D01*
X2035200Y3906160D01*
X2051160Y3890200D01*
X2052860Y3888820D01*
X2054620Y3887880D01*
X2056540Y3887300D01*
X2058720Y3887080D01*
X2081279Y3887080D01*
X2083460Y3887300D01*
X2085380Y3887880D01*
X2087140Y3888820D01*
X2088839Y3890200D01*
X2104800Y3906160D01*
X2106180Y3907860D01*
X2107120Y3909620D01*
X2107700Y3911540D01*
X2107920Y3913720D01*
X2107920Y3936280D01*
X2107700Y3938460D01*
X2107140Y3940340D01*
X2105840Y3942640D01*
X2105360Y3944220D01*
X2105540Y3945860D01*
X2106380Y3947300D01*
X2107720Y3948260D01*
X2109340Y3948600D01*
X2123240Y3948600D01*
X2124780Y3948300D01*
X2126080Y3947420D01*
X2131080Y3942420D01*
X2131980Y3941019D01*
X2132260Y3939400D01*
X2131840Y3937799D01*
X2130800Y3936500D01*
X2129860Y3935740D01*
X2127980Y3933440D01*
X2126580Y3930800D01*
X2125720Y3927960D01*
X2125420Y3925000D01*
X2125720Y3922040D01*
X2126580Y3919200D01*
X2127980Y3916560D01*
X2129860Y3914260D01*
X2131060Y3913279D01*
X2131840Y3912420D01*
X2132340Y3911360D01*
X2132880Y3909620D01*
X2133820Y3907860D01*
X2135200Y3906160D01*
X2151160Y3890200D01*
X2152860Y3888820D01*
X2154620Y3887880D01*
X2156540Y3887300D01*
X2158720Y3887080D01*
X2181280Y3887080D01*
X2183460Y3887300D01*
X2185380Y3887880D01*
X2187140Y3888820D01*
X2188840Y3890200D01*
X2204800Y3906160D01*
X2206180Y3907860D01*
X2207120Y3909620D01*
X2207700Y3911540D01*
X2207920Y3913720D01*
X2207920Y3936280D01*
X2207700Y3938460D01*
X2207120Y3940380D01*
X2206180Y3942140D01*
X2204800Y3943840D01*
X2190660Y3957980D01*
X2189780Y3959260D01*
X2189480Y3960800D01*
X2189780Y3962340D01*
X2190660Y3963620D01*
X2191960Y3964500D01*
X2193480Y3964800D01*
X2207040Y3964800D01*
X2208580Y3964500D01*
X2209880Y3963620D01*
X2231240Y3942260D01*
X2231940Y3941300D01*
X2232340Y3940179D01*
X2232380Y3939000D01*
X2232080Y3936259D01*
X2232080Y3913720D01*
X2232300Y3911540D01*
X2232880Y3909620D01*
X2233820Y3907860D01*
X2235200Y3906160D01*
X2251160Y3890200D01*
X2252860Y3888820D01*
X2254620Y3887880D01*
X2256540Y3887300D01*
X2258720Y3887080D01*
X2281280Y3887080D01*
X2283460Y3887300D01*
X2285380Y3887880D01*
X2287140Y3888820D01*
X2288840Y3890200D01*
X2304800Y3906160D01*
X2306180Y3907860D01*
X2307120Y3909620D01*
X2307700Y3911540D01*
X2307920Y3913720D01*
X2307920Y3936280D01*
X2307700Y3938460D01*
X2307120Y3940380D01*
X2306180Y3942140D01*
X2304800Y3943840D01*
X2288840Y3959800D01*
X2287140Y3961180D01*
X2285380Y3962120D01*
X2283460Y3962700D01*
X2281280Y3962919D01*
X2258740Y3962919D01*
X2256000Y3962620D01*
X2254820Y3962660D01*
X2253700Y3963060D01*
X2252740Y3963759D01*
X2225880Y3990600D01*
X2223440Y3992620D01*
X2220800Y3994020D01*
X2217960Y3994880D01*
X2214800Y3995200D01*
X2068100Y3995200D01*
X2066560Y3995500D01*
X2065260Y3996380D01*
X2064400Y3997660D01*
X2064100Y3999200D01*
X2064100Y4001940D01*
X2063820Y4004440D01*
X2063340Y4005760D01*
X2063120Y4007080D01*
X2063340Y4008420D01*
X2063820Y4009740D01*
X2064100Y4012240D01*
X2064100Y4021620D01*
X2063820Y4024120D01*
X2063340Y4025460D01*
X2063120Y4026780D01*
X2063340Y4028100D01*
X2063820Y4029440D01*
X2064100Y4031920D01*
X2064100Y4041320D01*
X2063820Y4043800D01*
X2063340Y4045140D01*
X2063120Y4046460D01*
X2063340Y4047780D01*
X2063820Y4049120D01*
X2064100Y4051600D01*
X2064100Y4061000D01*
X2063820Y4063480D01*
X2063340Y4064820D01*
X2063120Y4066139D01*
X2063340Y4067460D01*
X2063820Y4068800D01*
X2064100Y4071300D01*
X2064100Y4080680D01*
X2063820Y4083180D01*
X2063340Y4084500D01*
X2063120Y4085820D01*
X2063340Y4087160D01*
X2063820Y4088480D01*
X2064100Y4090980D01*
X2064100Y4100360D01*
X2063820Y4102860D01*
X2063340Y4104200D01*
X2063120Y4105520D01*
X2063340Y4106840D01*
X2063820Y4108180D01*
X2064100Y4110659D01*
X2064100Y4115840D01*
X2064400Y4117360D01*
X2065260Y4118660D01*
X2066560Y4119540D01*
X2068100Y4119840D01*
X2134840Y4119840D01*
X2138000Y4120140D01*
X2140840Y4121019D01*
X2143480Y4122420D01*
X2145920Y4124420D01*
X2148220Y4126720D01*
X2149360Y4127520D01*
X2150700Y4127880D01*
X2153860Y4128159D01*
X2157580Y4129160D01*
X2161100Y4130779D01*
X2164260Y4133000D01*
X2167000Y4135740D01*
X2169220Y4138900D01*
X2170100Y4140820D01*
X2171000Y4142040D01*
X2172300Y4142860D01*
X2173800Y4143120D01*
X2175280Y4142799D01*
X2176560Y4141940D01*
X2179120Y4139400D01*
X2181820Y4137160D01*
X2183000Y4135740D01*
X2185740Y4133000D01*
X2188900Y4130779D01*
X2192420Y4129160D01*
X2196140Y4128159D01*
X2200000Y4127820D01*
X2203860Y4128159D01*
X2207580Y4129160D01*
X2211100Y4130779D01*
X2214260Y4133000D01*
X2217000Y4135740D01*
X2218700Y4138159D01*
X2219980Y4139340D01*
X2221620Y4139860D01*
X2223340Y4139640D01*
X2224800Y4138700D01*
X2353620Y4009880D01*
X2354500Y4008580D01*
X2354800Y4007040D01*
X2354800Y3964620D01*
X2354400Y3962880D01*
X2353300Y3961500D01*
X2351160Y3959780D01*
X2335200Y3943840D01*
X2333820Y3942140D01*
X2332880Y3940380D01*
X2332300Y3938460D01*
X2332080Y3936280D01*
X2332080Y3913720D01*
X2332300Y3911540D01*
X2332880Y3909620D01*
X2333820Y3907860D01*
X2335200Y3906160D01*
X2351160Y3890200D01*
X2352860Y3888820D01*
X2354620Y3887880D01*
X2356540Y3887300D01*
X2358720Y3887080D01*
X2381280Y3887080D01*
X2383460Y3887300D01*
X2385380Y3887880D01*
X2387140Y3888820D01*
X2388840Y3890200D01*
X2404800Y3906160D01*
X2406180Y3907860D01*
X2407120Y3909620D01*
X2407700Y3911540D01*
X2407920Y3913720D01*
X2407920Y3936280D01*
X2407700Y3938460D01*
X2407120Y3940380D01*
X2406180Y3942140D01*
X2404800Y3943840D01*
X2388840Y3959780D01*
X2386700Y3961500D01*
X2385600Y3962880D01*
X2385200Y3964620D01*
X2385200Y4014800D01*
X2384880Y4017960D01*
X2384020Y4020800D01*
X2382620Y4023440D01*
X2380600Y4025880D01*
X2195880Y4210600D01*
X2193440Y4212620D01*
X2190800Y4214020D01*
X2187960Y4214880D01*
X2184800Y4215200D01*
X2125200Y4215200D01*
X2122040Y4214880D01*
X2119200Y4214020D01*
X2116560Y4212620D01*
X2114120Y4210600D01*
X2094280Y4190779D01*
X2092980Y4189900D01*
X2091440Y4189600D01*
X2014700Y4189600D01*
X2013800Y4189540D01*
X1975400Y4189540D01*
X1971860Y4189120D01*
X1964980Y4189120D01*
X1965240Y4186900D01*
X1965700Y4185580D01*
X1965920Y4184240D01*
X1965700Y4182919D01*
X1965240Y4181600D01*
X1964960Y4179100D01*
X1964960Y4169720D01*
X1965240Y4167220D01*
X1965700Y4165899D01*
X1965920Y4164560D01*
X1965700Y4163240D01*
X1965240Y4161920D01*
X1964960Y4159420D01*
X1964960Y4150040D01*
X1965240Y4147540D01*
X1965520Y4146740D01*
X1965740Y4145220D01*
X1965380Y4143740D01*
X1964480Y4142500D01*
X1963180Y4141680D01*
X1961680Y4141400D01*
X1960180Y4141720D01*
X1958920Y4142580D01*
X1951380Y4150120D01*
X1950500Y4151420D01*
X1950200Y4152960D01*
X1950200Y4202280D01*
X1950500Y4203820D01*
X1951380Y4205120D01*
X1952000Y4205740D01*
X1954220Y4208900D01*
X1955840Y4212420D01*
X1956840Y4216140D01*
X1956960Y4217520D01*
X1957480Y4219140D01*
X1957180Y4220160D01*
X1956840Y4223860D01*
X1955840Y4227580D01*
X1954220Y4231100D01*
X1953860Y4231600D01*
X1953200Y4233200D01*
X1953260Y4234940D01*
X1954060Y4236480D01*
X1955440Y4237520D01*
X1957120Y4237900D01*
X1960960Y4237900D01*
X1962480Y4237600D01*
X1963779Y4236720D01*
X1964640Y4235440D01*
X1964960Y4233900D01*
X1964960Y4228780D01*
X1965240Y4226280D01*
X1965700Y4224940D01*
X1965920Y4223620D01*
X1965700Y4222300D01*
X1965240Y4220960D01*
X1965140Y4220060D01*
X1964680Y4218740D01*
X1971879Y4218740D01*
X1975400Y4218340D01*
X2078300Y4218300D01*
X2081459Y4218620D01*
X2084300Y4219480D01*
X2086940Y4220880D01*
X2089379Y4222900D01*
X2120600Y4254120D01*
X2122620Y4256560D01*
X2124020Y4259200D01*
X2124880Y4262040D01*
X2125200Y4265200D01*
X2125200Y4339800D01*
X2124880Y4342960D01*
X2124020Y4345800D01*
X2122620Y4348440D01*
X2120600Y4350880D01*
X2089580Y4381900D01*
X2086900Y4384040D01*
X2085580Y4385200D01*
X2084860Y4386800D01*
X2084900Y4388540D01*
X2085700Y4390120D01*
X2087620Y4392460D01*
X2089019Y4395100D01*
X2089880Y4397940D01*
X2090200Y4401100D01*
X2090200Y4454800D01*
X2089880Y4457960D01*
X2089019Y4460800D01*
X2087620Y4463440D01*
X2085600Y4465880D01*
X2072180Y4479300D01*
X2071360Y4479980D01*
X2070340Y4481260D01*
X2069900Y4482820D01*
X2070140Y4484420D01*
X2070980Y4485820D01*
X2072300Y4486740D01*
X2073899Y4487080D01*
X2081279Y4487080D01*
X2083460Y4487300D01*
X2085380Y4487880D01*
X2087140Y4488820D01*
X2088839Y4490200D01*
X2104800Y4506160D01*
X2106180Y4507860D01*
X2107120Y4509620D01*
X2107700Y4511540D01*
X2107920Y4513720D01*
X2107920Y4536280D01*
X2107700Y4538460D01*
X2107120Y4540380D01*
X2106180Y4542140D01*
X2104800Y4543840D01*
X2088839Y4559800D01*
X2087140Y4561180D01*
X2085380Y4562120D01*
X2083460Y4562700D01*
X2081279Y4562920D01*
X2058720Y4562920D01*
X2056540Y4562700D01*
X2054620Y4562120D01*
X2052860Y4561180D01*
X2051160Y4559800D01*
X2035200Y4543840D01*
X2033820Y4542140D01*
X2032880Y4540380D01*
X2032300Y4538460D01*
X2032080Y4536280D01*
X2032080Y4513720D01*
X2032300Y4511540D01*
X2032880Y4509620D01*
X2033820Y4507860D01*
X2035200Y4506160D01*
X2050640Y4490720D01*
X2051519Y4489440D01*
X2051819Y4487900D01*
X2051519Y4486360D01*
X2050640Y4485080D01*
X2049340Y4484200D01*
X2047820Y4483900D01*
X1992180Y4483900D01*
X1990660Y4484200D01*
X1989360Y4485080D01*
X1988480Y4486360D01*
X1988180Y4487900D01*
X1988480Y4489440D01*
X1989360Y4490720D01*
X2004800Y4506160D01*
X2006180Y4507860D01*
X2007120Y4509620D01*
X2007700Y4511540D01*
X2007920Y4513720D01*
X2007920Y4536280D01*
X2007700Y4538460D01*
X2007120Y4540380D01*
X2006180Y4542140D01*
X2004800Y4543840D01*
X1988839Y4559800D01*
X1987140Y4561180D01*
X1985380Y4562120D01*
X1983460Y4562700D01*
X1981279Y4562920D01*
X1958720Y4562920D01*
X1956540Y4562700D01*
X1954620Y4562120D01*
X1952860Y4561180D01*
X1951160Y4559800D01*
X1935200Y4543840D01*
X1933820Y4542140D01*
X1932880Y4540380D01*
X1932300Y4538460D01*
X1932080Y4536280D01*
X1932080Y4513720D01*
X1932300Y4511540D01*
X1932880Y4509620D01*
X1933820Y4507860D01*
X1935200Y4506160D01*
X1950640Y4490720D01*
X1951519Y4489440D01*
X1951819Y4487900D01*
X1951519Y4486360D01*
X1950640Y4485080D01*
X1949340Y4484200D01*
X1947820Y4483900D01*
X1945360Y4483900D01*
X1943820Y4484200D01*
X1942520Y4485080D01*
X1932380Y4495200D01*
X1929940Y4497220D01*
X1927300Y4498620D01*
X1924460Y4499480D01*
X1921300Y4499800D01*
X1908020Y4499800D01*
X1906560Y4500080D01*
X1905280Y4500880D01*
X1904400Y4502080D01*
X1904040Y4503540D01*
X1904220Y4505020D01*
X1904940Y4506340D01*
X1906180Y4507860D01*
X1907120Y4509620D01*
X1907700Y4511540D01*
X1907920Y4513720D01*
X1907920Y4536280D01*
X1907700Y4538460D01*
X1907120Y4540380D01*
X1906180Y4542140D01*
X1904800Y4543840D01*
X1888839Y4559800D01*
X1887140Y4561180D01*
X1885380Y4562120D01*
X1883460Y4562700D01*
X1881279Y4562920D01*
X1858720Y4562920D01*
X1856540Y4562700D01*
X1854620Y4562120D01*
X1852860Y4561180D01*
X1851160Y4559800D01*
X1835200Y4543840D01*
X1833820Y4542140D01*
X1832880Y4540380D01*
X1832300Y4538460D01*
X1832080Y4536280D01*
X1832080Y4513720D01*
X1832300Y4511540D01*
X1832880Y4509620D01*
X1833820Y4507860D01*
X1835060Y4506340D01*
X1835780Y4505020D01*
X1835960Y4503540D01*
X1835600Y4502080D01*
X1834720Y4500880D01*
X1833440Y4500080D01*
X1831980Y4499800D01*
X1808020Y4499800D01*
X1806560Y4500080D01*
X1805280Y4500880D01*
X1804400Y4502080D01*
X1804040Y4503540D01*
X1804220Y4505020D01*
X1804940Y4506340D01*
X1806180Y4507860D01*
X1807120Y4509620D01*
X1807700Y4511540D01*
X1807920Y4513720D01*
X1807920Y4536280D01*
X1807700Y4538460D01*
X1807120Y4540380D01*
X1806180Y4542140D01*
X1804800Y4543840D01*
X1788839Y4559800D01*
X1787140Y4561180D01*
X1785380Y4562120D01*
X1783460Y4562700D01*
X1781279Y4562920D01*
X1758720Y4562920D01*
X1756540Y4562700D01*
X1754620Y4562120D01*
X1752860Y4561180D01*
X1751160Y4559800D01*
X1735200Y4543840D01*
X1733820Y4542140D01*
X1732880Y4540380D01*
X1732300Y4538460D01*
X1732080Y4536280D01*
X1732080Y4513720D01*
X1732300Y4511540D01*
X1732880Y4509620D01*
X1733820Y4507860D01*
X1735060Y4506340D01*
X1735780Y4505020D01*
X1735960Y4503540D01*
X1735600Y4502080D01*
X1734720Y4500880D01*
X1733440Y4500080D01*
X1731980Y4499800D01*
X1708020Y4499800D01*
X1706560Y4500080D01*
X1705280Y4500880D01*
X1704400Y4502080D01*
X1704040Y4503540D01*
X1704220Y4505020D01*
X1704940Y4506340D01*
X1706180Y4507860D01*
X1707120Y4509620D01*
X1707700Y4511540D01*
X1707920Y4513720D01*
X1707920Y4536280D01*
X1707700Y4538460D01*
X1707120Y4540380D01*
X1706180Y4542140D01*
X1704800Y4543840D01*
X1688839Y4559800D01*
X1687140Y4561180D01*
X1685380Y4562120D01*
X1683460Y4562700D01*
X1681279Y4562920D01*
X1658720Y4562920D01*
X1656540Y4562700D01*
X1654620Y4562120D01*
X1652860Y4561180D01*
X1651160Y4559800D01*
X1635220Y4543820D01*
X1633820Y4542140D01*
X1632880Y4540380D01*
X1632300Y4538460D01*
X1632100Y4536280D01*
X1632100Y4513720D01*
X1632300Y4511540D01*
X1632880Y4509620D01*
X1633820Y4507860D01*
X1635080Y4506340D01*
X1635800Y4505020D01*
X1635980Y4503540D01*
X1635600Y4502080D01*
X1634720Y4500880D01*
X1633460Y4500080D01*
X1631980Y4499800D01*
X1608020Y4499800D01*
X1606560Y4500080D01*
X1605280Y4500880D01*
X1604400Y4502080D01*
X1604040Y4503540D01*
X1604220Y4505020D01*
X1604940Y4506340D01*
X1606180Y4507860D01*
X1607120Y4509620D01*
X1607700Y4511540D01*
X1607920Y4513720D01*
X1607920Y4536280D01*
X1607700Y4538460D01*
X1607120Y4540380D01*
X1606180Y4542140D01*
X1604800Y4543840D01*
X1588839Y4559800D01*
X1587140Y4561180D01*
X1585380Y4562120D01*
X1583460Y4562700D01*
X1581279Y4562920D01*
X1558720Y4562920D01*
X1556540Y4562700D01*
X1554620Y4562120D01*
X1552860Y4561180D01*
X1551160Y4559800D01*
X1535220Y4543820D01*
X1533820Y4542140D01*
X1532880Y4540380D01*
X1532300Y4538460D01*
X1532100Y4536280D01*
X1532100Y4513720D01*
X1532300Y4511540D01*
X1532880Y4509620D01*
X1533820Y4507860D01*
X1535080Y4506340D01*
X1535800Y4505020D01*
X1535980Y4503540D01*
X1535600Y4502080D01*
X1534720Y4500880D01*
X1533460Y4500080D01*
X1531980Y4499800D01*
X1508020Y4499800D01*
X1506560Y4500080D01*
X1505280Y4500880D01*
X1504400Y4502080D01*
X1504040Y4503540D01*
X1504220Y4505020D01*
X1504940Y4506340D01*
X1506180Y4507860D01*
X1507120Y4509620D01*
X1507700Y4511540D01*
X1507920Y4513720D01*
X1507920Y4536280D01*
X1507700Y4538460D01*
X1507120Y4540380D01*
X1506180Y4542140D01*
X1504800Y4543840D01*
X1488839Y4559800D01*
X1487140Y4561180D01*
X1485380Y4562120D01*
X1483460Y4562700D01*
X1481279Y4562920D01*
X1458720Y4562920D01*
X1456540Y4562700D01*
X1454620Y4562120D01*
X1452860Y4561180D01*
X1451160Y4559800D01*
X1435220Y4543820D01*
X1433820Y4542140D01*
X1432880Y4540380D01*
X1432300Y4538460D01*
X1432100Y4536280D01*
X1432100Y4513720D01*
X1432300Y4511540D01*
X1432880Y4509620D01*
X1433820Y4507860D01*
X1435080Y4506340D01*
X1435800Y4505020D01*
X1435980Y4503540D01*
X1435600Y4502080D01*
X1434720Y4500880D01*
X1433460Y4500080D01*
X1431980Y4499800D01*
X1408020Y4499800D01*
X1406560Y4500080D01*
X1405280Y4500880D01*
X1404400Y4502080D01*
X1404040Y4503540D01*
X1404220Y4505020D01*
X1404940Y4506340D01*
X1406180Y4507860D01*
X1407120Y4509620D01*
X1407700Y4511540D01*
X1407920Y4513720D01*
X1407920Y4536280D01*
X1407700Y4538460D01*
X1407120Y4540380D01*
X1406180Y4542140D01*
X1404800Y4543840D01*
X1388839Y4559800D01*
X1387140Y4561180D01*
X1385380Y4562120D01*
X1383460Y4562700D01*
X1381279Y4562920D01*
X1358720Y4562920D01*
X1356540Y4562700D01*
X1354620Y4562120D01*
X1352860Y4561180D01*
X1351160Y4559800D01*
X1335220Y4543820D01*
X1333820Y4542140D01*
X1332880Y4540380D01*
X1332300Y4538460D01*
X1332100Y4536280D01*
X1332100Y4513720D01*
X1332300Y4511540D01*
X1332880Y4509620D01*
X1333820Y4507860D01*
X1335080Y4506340D01*
X1335800Y4505020D01*
X1335980Y4503540D01*
X1335600Y4502080D01*
X1334720Y4500880D01*
X1333460Y4500080D01*
X1331980Y4499800D01*
X1308020Y4499800D01*
X1306560Y4500080D01*
X1305280Y4500880D01*
X1304400Y4502080D01*
X1304040Y4503540D01*
X1304220Y4505020D01*
X1304940Y4506340D01*
X1306180Y4507860D01*
X1307120Y4509620D01*
X1307700Y4511540D01*
X1307920Y4513720D01*
X1307920Y4536280D01*
X1307700Y4538460D01*
X1307120Y4540380D01*
X1306180Y4542140D01*
X1304800Y4543840D01*
X1288839Y4559800D01*
X1287140Y4561180D01*
X1285380Y4562120D01*
X1283460Y4562700D01*
X1281279Y4562920D01*
X1258720Y4562920D01*
X1256540Y4562700D01*
X1254620Y4562120D01*
X1252860Y4561180D01*
X1251160Y4559800D01*
X1235220Y4543820D01*
X1233820Y4542140D01*
X1232880Y4540380D01*
X1232300Y4538460D01*
X1232100Y4536280D01*
X1232100Y4513720D01*
X1232300Y4511540D01*
X1232880Y4509620D01*
X1233820Y4507860D01*
X1235080Y4506340D01*
X1235800Y4505020D01*
X1235980Y4503540D01*
X1235600Y4502080D01*
X1234720Y4500880D01*
X1233460Y4500080D01*
X1231980Y4499800D01*
X1208020Y4499800D01*
X1206560Y4500080D01*
X1205280Y4500880D01*
X1204400Y4502080D01*
X1204040Y4503540D01*
X1204220Y4505020D01*
X1204940Y4506340D01*
X1206180Y4507860D01*
X1207120Y4509620D01*
X1207700Y4511540D01*
X1207920Y4513720D01*
X1207920Y4536280D01*
X1207700Y4538460D01*
X1207120Y4540380D01*
X1206180Y4542140D01*
X1204800Y4543840D01*
X1188840Y4559800D01*
X1187140Y4561180D01*
X1185380Y4562120D01*
X1183460Y4562700D01*
X1181280Y4562920D01*
X1158720Y4562920D01*
X1156540Y4562700D01*
X1154620Y4562120D01*
X1152860Y4561180D01*
X1151160Y4559800D01*
X1135220Y4543820D01*
X1133820Y4542140D01*
X1132880Y4540380D01*
X1132300Y4538460D01*
X1132100Y4536280D01*
X1132100Y4513720D01*
X1132300Y4511540D01*
X1132880Y4509620D01*
X1133820Y4507860D01*
X1135080Y4506340D01*
X1135800Y4505020D01*
X1135980Y4503540D01*
X1135600Y4502080D01*
X1134720Y4500880D01*
X1133460Y4500080D01*
X1131980Y4499800D01*
X1108020Y4499800D01*
X1106560Y4500080D01*
X1105280Y4500880D01*
X1104400Y4502080D01*
X1104040Y4503540D01*
X1104220Y4505020D01*
X1104940Y4506340D01*
X1106180Y4507860D01*
X1107120Y4509620D01*
X1107700Y4511540D01*
X1107920Y4513720D01*
X1107920Y4536280D01*
X1107700Y4538460D01*
X1107120Y4540380D01*
X1106180Y4542140D01*
X1104800Y4543840D01*
X1088840Y4559800D01*
X1087140Y4561180D01*
X1085380Y4562120D01*
X1083460Y4562700D01*
X1081280Y4562920D01*
X1058720Y4562920D01*
X1056540Y4562700D01*
X1054620Y4562120D01*
X1052860Y4561180D01*
X1051160Y4559800D01*
X1035220Y4543820D01*
X1033820Y4542140D01*
X1032880Y4540380D01*
X1032300Y4538460D01*
X1032099Y4536280D01*
X1032099Y4513720D01*
X1032300Y4511540D01*
X1032880Y4509620D01*
X1033820Y4507860D01*
X1035080Y4506340D01*
X1035800Y4505020D01*
X1035980Y4503540D01*
X1035600Y4502080D01*
X1034720Y4500880D01*
X1033460Y4500080D01*
X1031979Y4499800D01*
X1008020Y4499800D01*
X1006560Y4500080D01*
X1005280Y4500880D01*
X1004400Y4502080D01*
X1004040Y4503540D01*
X1004220Y4505020D01*
X1004940Y4506340D01*
X1006180Y4507860D01*
X1007120Y4509620D01*
X1007700Y4511540D01*
X1007920Y4513720D01*
X1007920Y4536280D01*
X1007700Y4538460D01*
X1007120Y4540380D01*
X1006180Y4542140D01*
X1004800Y4543840D01*
X988840Y4559800D01*
X987140Y4561180D01*
X985380Y4562120D01*
X983460Y4562700D01*
X981280Y4562920D01*
X958720Y4562920D01*
X956540Y4562700D01*
X954620Y4562120D01*
X952860Y4561180D01*
X951160Y4559800D01*
X935220Y4543820D01*
X933820Y4542140D01*
X932880Y4540380D01*
X932300Y4538460D01*
X932099Y4536280D01*
X932099Y4513720D01*
X932300Y4511540D01*
X932880Y4509620D01*
X933820Y4507860D01*
X935080Y4506340D01*
X935800Y4505020D01*
X935980Y4503540D01*
X935600Y4502080D01*
X934720Y4500880D01*
X933460Y4500080D01*
X931979Y4499800D01*
X908020Y4499800D01*
X906560Y4500080D01*
X905280Y4500880D01*
X904400Y4502080D01*
X904040Y4503540D01*
X904220Y4505020D01*
X904940Y4506340D01*
X906180Y4507860D01*
X907120Y4509620D01*
X907700Y4511540D01*
X907920Y4513720D01*
X907920Y4536280D01*
X907700Y4538460D01*
X907120Y4540380D01*
X906180Y4542140D01*
X904800Y4543840D01*
X888840Y4559800D01*
X887140Y4561180D01*
X885380Y4562120D01*
X883460Y4562700D01*
X881280Y4562920D01*
X858720Y4562920D01*
X856540Y4562700D01*
X854620Y4562120D01*
X852860Y4561180D01*
X851160Y4559800D01*
X835220Y4543820D01*
X833820Y4542140D01*
X832880Y4540380D01*
X832300Y4538460D01*
X832099Y4536280D01*
X832099Y4513720D01*
X832300Y4511540D01*
X832880Y4509620D01*
X833820Y4507860D01*
X835080Y4506340D01*
X835800Y4505020D01*
X835980Y4503540D01*
X835600Y4502080D01*
X834720Y4500880D01*
X833460Y4500080D01*
X831979Y4499800D01*
X818360Y4499800D01*
X816820Y4500100D01*
X815520Y4500980D01*
X808760Y4507740D01*
X808060Y4508700D01*
X807660Y4509820D01*
X807620Y4511000D01*
X807920Y4513740D01*
X807920Y4536280D01*
X807700Y4538460D01*
X807120Y4540380D01*
X806180Y4542140D01*
X804800Y4543840D01*
X788840Y4559800D01*
X787140Y4561180D01*
X785380Y4562120D01*
X783460Y4562700D01*
X781280Y4562920D01*
X758720Y4562920D01*
X756540Y4562700D01*
X754620Y4562120D01*
X752860Y4561180D01*
X751160Y4559800D01*
X735220Y4543820D01*
X733820Y4542140D01*
X732880Y4540380D01*
X732300Y4538460D01*
X732099Y4536280D01*
X732099Y4513720D01*
X732300Y4511540D01*
X732880Y4509620D01*
X733820Y4507860D01*
X735220Y4506180D01*
X750840Y4490520D01*
X751720Y4489220D01*
X752020Y4487700D01*
X751720Y4486160D01*
X750840Y4484880D01*
X749539Y4484000D01*
X748020Y4483700D01*
X734460Y4483700D01*
X732920Y4484000D01*
X731620Y4484880D01*
X708760Y4507740D01*
X708060Y4508700D01*
X707660Y4509820D01*
X707620Y4511000D01*
X707920Y4513740D01*
X707920Y4536280D01*
X707700Y4538460D01*
X707120Y4540380D01*
X706180Y4542140D01*
X704800Y4543840D01*
X688840Y4559800D01*
X687140Y4561180D01*
X685380Y4562120D01*
X683460Y4562700D01*
X681280Y4562920D01*
X658720Y4562920D01*
X656540Y4562700D01*
X654620Y4562120D01*
X652860Y4561180D01*
X651160Y4559800D01*
X635220Y4543820D01*
X633820Y4542140D01*
X632880Y4540380D01*
X632300Y4538460D01*
X632100Y4536280D01*
X632100Y4513720D01*
X632300Y4511540D01*
X632880Y4509620D01*
X633820Y4507860D01*
X635220Y4506180D01*
X651160Y4490200D01*
X652860Y4488820D01*
X654620Y4487880D01*
X656540Y4487300D01*
X658720Y4487080D01*
X681260Y4487080D01*
X684000Y4487380D01*
X685180Y4487340D01*
X686300Y4486940D01*
X687260Y4486240D01*
X715620Y4457900D01*
X718060Y4455880D01*
X720699Y4454480D01*
X723540Y4453620D01*
X726700Y4453300D01*
X937140Y4453300D01*
X938680Y4453000D01*
X939980Y4452120D01*
X940840Y4450840D01*
X941140Y4449300D01*
X940840Y4447760D01*
X939980Y4446480D01*
X929400Y4435880D01*
X927380Y4433440D01*
X925980Y4430800D01*
X925120Y4427960D01*
X924800Y4424800D01*
X924800Y4055200D01*
X925120Y4052040D01*
X925980Y4049200D01*
X927380Y4046560D01*
X929400Y4044120D01*
X1031240Y3942260D01*
X1032200Y3940760D01*
X1032400Y3938980D01*
X1032099Y3936259D01*
X1032099Y3913720D01*
X1032300Y3911540D01*
X1032880Y3909620D01*
X1033820Y3907860D01*
X1035220Y3906180D01*
X1051160Y3890200D01*
X1052860Y3888820D01*
X1054620Y3887880D01*
X1056540Y3887300D01*
G37*
G36*
X2036699Y4199040D02*
G01*
X2064060Y4199040D01*
X2063820Y4201280D01*
X2063340Y4202620D01*
X2063120Y4203940D01*
X2063340Y4205260D01*
X2063820Y4206600D01*
X2064060Y4208820D01*
X2036699Y4208820D01*
G37*
G36*
X1964980Y4199040D02*
G01*
X1992340Y4199040D01*
X1992340Y4208820D01*
X1964980Y4208820D01*
X1965240Y4206600D01*
X1965700Y4205260D01*
X1965920Y4203940D01*
X1965700Y4202620D01*
X1965240Y4201280D01*
G37*
G36*
X2158720Y4487080D02*
G01*
X2181280Y4487080D01*
X2183460Y4487300D01*
X2185380Y4487880D01*
X2187140Y4488820D01*
X2188840Y4490200D01*
X2204800Y4506160D01*
X2206180Y4507860D01*
X2207120Y4509620D01*
X2207700Y4511540D01*
X2207920Y4513720D01*
X2207920Y4536280D01*
X2207700Y4538460D01*
X2207120Y4540380D01*
X2206180Y4542140D01*
X2204800Y4543840D01*
X2188840Y4559800D01*
X2187140Y4561180D01*
X2185380Y4562120D01*
X2183460Y4562700D01*
X2181280Y4562920D01*
X2158720Y4562920D01*
X2156540Y4562700D01*
X2154620Y4562120D01*
X2152860Y4561180D01*
X2151160Y4559800D01*
X2135200Y4543840D01*
X2133820Y4542140D01*
X2132880Y4540380D01*
X2132300Y4538460D01*
X2132080Y4536280D01*
X2132080Y4513720D01*
X2132300Y4511540D01*
X2132880Y4509620D01*
X2133820Y4507860D01*
X2135200Y4506160D01*
X2151160Y4490200D01*
X2152860Y4488820D01*
X2154620Y4487880D01*
X2156540Y4487300D01*
G37*
G36*
X2258720Y4487080D02*
G01*
X2281280Y4487080D01*
X2283460Y4487300D01*
X2285380Y4487880D01*
X2287140Y4488820D01*
X2288840Y4490200D01*
X2304800Y4506160D01*
X2306180Y4507860D01*
X2307120Y4509620D01*
X2307700Y4511540D01*
X2307920Y4513720D01*
X2307920Y4536280D01*
X2307700Y4538460D01*
X2307120Y4540380D01*
X2306180Y4542140D01*
X2304800Y4543840D01*
X2288840Y4559800D01*
X2287140Y4561180D01*
X2285380Y4562120D01*
X2283460Y4562700D01*
X2281280Y4562920D01*
X2258720Y4562920D01*
X2256540Y4562700D01*
X2254620Y4562120D01*
X2252860Y4561180D01*
X2251160Y4559800D01*
X2235200Y4543840D01*
X2233820Y4542140D01*
X2232880Y4540380D01*
X2232300Y4538460D01*
X2232080Y4536280D01*
X2232080Y4513720D01*
X2232300Y4511540D01*
X2232880Y4509620D01*
X2233820Y4507860D01*
X2235200Y4506160D01*
X2251160Y4490200D01*
X2252860Y4488820D01*
X2254620Y4487880D01*
X2256540Y4487300D01*
G37*
G36*
X2353640Y4488400D02*
G01*
X2353640Y4508640D01*
X2333400Y4508640D01*
X2333820Y4507860D01*
X2335200Y4506160D01*
X2351160Y4490200D01*
X2352860Y4488820D01*
G37*
G36*
X2386360Y4488400D02*
G01*
X2387140Y4488820D01*
X2388840Y4490200D01*
X2404800Y4506160D01*
X2406180Y4507860D01*
X2406600Y4508640D01*
X2386360Y4508640D01*
G37*
G36*
X2386360Y4541360D02*
G01*
X2406600Y4541360D01*
X2406180Y4542140D01*
X2404800Y4543840D01*
X2388840Y4559800D01*
X2387140Y4561180D01*
X2386360Y4561600D01*
G37*
G36*
X2333400Y4541360D02*
G01*
X2353640Y4541360D01*
X2353640Y4561600D01*
X2352860Y4561180D01*
X2351160Y4559800D01*
X2335200Y4543840D01*
X2333820Y4542140D01*
G37*

%LPD*%
G36*
X1962420Y4435960D02*
G01*
X1960840Y4436240D01*
X1959500Y4437120D01*
X1949960Y4446680D01*
X1949100Y4447980D01*
X1948800Y4449500D01*
X1949100Y4451040D01*
X1949960Y4452320D01*
X1951260Y4453200D01*
X1952800Y4453500D01*
X1961420Y4453500D01*
X1962960Y4453200D01*
X1964259Y4452320D01*
X1965120Y4451040D01*
X1965420Y4449500D01*
X1965420Y4445300D01*
X1965700Y4442820D01*
X1966180Y4441480D01*
X1966399Y4440160D01*
X1966100Y4438640D01*
X1965280Y4437260D01*
X1963980Y4436320D01*
G37*

%LPD*%
G36*
X1082320Y4425820D02*
G01*
X1080800Y4426140D01*
X1079500Y4427000D01*
X1060020Y4446480D01*
X1059160Y4447760D01*
X1058860Y4449300D01*
X1059160Y4450840D01*
X1060020Y4452120D01*
X1061320Y4453000D01*
X1062860Y4453300D01*
X1157800Y4453300D01*
X1159340Y4453000D01*
X1160640Y4452120D01*
X1161500Y4450840D01*
X1161800Y4449300D01*
X1161800Y4445300D01*
X1162080Y4442820D01*
X1162560Y4441480D01*
X1162780Y4440160D01*
X1162560Y4438840D01*
X1162080Y4437500D01*
X1161800Y4435020D01*
X1161800Y4429820D01*
X1161500Y4428300D01*
X1160640Y4427000D01*
X1159340Y4426140D01*
X1157800Y4425820D01*
G37*

%LPD*%
G36*
X1043900Y4406140D02*
G01*
X1042360Y4406440D01*
X1041060Y4407320D01*
X1038100Y4410280D01*
X1037300Y4411420D01*
X1036940Y4412760D01*
X1036840Y4413860D01*
X1036020Y4416920D01*
X1035939Y4418660D01*
X1036620Y4420260D01*
X1037880Y4421420D01*
X1039539Y4421940D01*
X1041260Y4421720D01*
X1042720Y4420780D01*
X1050540Y4412960D01*
X1051400Y4411680D01*
X1051700Y4410140D01*
X1051400Y4408600D01*
X1050540Y4407320D01*
X1049240Y4406440D01*
X1047700Y4406140D01*
G37*

%LPD*%
G36*
X1083620Y4347080D02*
G01*
X1082160Y4347380D01*
X1080880Y4348180D01*
X1080000Y4349400D01*
X1079540Y4350360D01*
X1079180Y4351920D01*
X1079440Y4353500D01*
X1080300Y4354840D01*
X1081620Y4355740D01*
X1083180Y4356060D01*
X1157800Y4356060D01*
X1159340Y4355760D01*
X1160640Y4354880D01*
X1161500Y4353600D01*
X1161800Y4352060D01*
X1161800Y4351080D01*
X1161500Y4349560D01*
X1160640Y4348260D01*
X1159340Y4347400D01*
X1157800Y4347080D01*
G37*

%LPD*%
G36*
X2090660Y4294760D02*
G01*
X2089100Y4295140D01*
X2087580Y4295840D01*
X2083860Y4296840D01*
X2080700Y4297120D01*
X2079360Y4297480D01*
X2078220Y4298280D01*
X2073360Y4303120D01*
X2070920Y4305140D01*
X2068280Y4306540D01*
X2066940Y4306960D01*
X2065460Y4307780D01*
X2064440Y4309140D01*
X2064100Y4310780D01*
X2064100Y4316900D01*
X2063820Y4319400D01*
X2063340Y4320720D01*
X2063120Y4322040D01*
X2063340Y4323360D01*
X2063820Y4324700D01*
X2064100Y4327200D01*
X2064100Y4336580D01*
X2063820Y4339080D01*
X2063340Y4340420D01*
X2063120Y4341740D01*
X2063340Y4343060D01*
X2063820Y4344380D01*
X2064100Y4346880D01*
X2064100Y4352100D01*
X2064400Y4353640D01*
X2065260Y4354920D01*
X2066560Y4355800D01*
X2068100Y4356100D01*
X2070740Y4356100D01*
X2072280Y4355800D01*
X2073580Y4354920D01*
X2093620Y4334880D01*
X2094500Y4333580D01*
X2094800Y4332040D01*
X2094800Y4298760D01*
X2094480Y4297200D01*
X2093580Y4295880D01*
X2092240Y4295020D01*
G37*

%LPD*%
G36*
X1834160Y4288000D02*
G01*
X1832620Y4288300D01*
X1831320Y4289180D01*
X1830460Y4290460D01*
X1830160Y4292000D01*
X1830460Y4293540D01*
X1831320Y4294820D01*
X1832320Y4295820D01*
X1833620Y4296700D01*
X1835160Y4297000D01*
X1960960Y4297000D01*
X1962480Y4296700D01*
X1963779Y4295820D01*
X1964640Y4294540D01*
X1964960Y4293000D01*
X1964960Y4292000D01*
X1964640Y4290460D01*
X1963779Y4289180D01*
X1962480Y4288300D01*
X1960960Y4288000D01*
G37*

%LPD*%
G36*
X1571040Y4254080D02*
G01*
X1569560Y4254320D01*
X1568280Y4255100D01*
X1567360Y4256280D01*
X1566940Y4257740D01*
X1566840Y4258860D01*
X1565840Y4262580D01*
X1564220Y4266100D01*
X1562000Y4269260D01*
X1559259Y4272000D01*
X1556100Y4274220D01*
X1552580Y4275840D01*
X1548860Y4276840D01*
X1545700Y4277120D01*
X1544360Y4277480D01*
X1543220Y4278280D01*
X1459280Y4362200D01*
X1456840Y4364220D01*
X1454199Y4365620D01*
X1451360Y4366480D01*
X1448200Y4366800D01*
X1264940Y4366800D01*
X1263420Y4367100D01*
X1262120Y4367980D01*
X1261260Y4369260D01*
X1260940Y4370800D01*
X1260940Y4375960D01*
X1260660Y4378440D01*
X1260200Y4379780D01*
X1259980Y4381100D01*
X1260200Y4382420D01*
X1260660Y4383760D01*
X1260940Y4386240D01*
X1260940Y4395640D01*
X1260660Y4398140D01*
X1260200Y4399460D01*
X1259980Y4400780D01*
X1260200Y4402100D01*
X1260660Y4403440D01*
X1260940Y4405940D01*
X1260940Y4415320D01*
X1260660Y4417820D01*
X1260200Y4419160D01*
X1259980Y4420480D01*
X1260200Y4421800D01*
X1260660Y4423120D01*
X1260940Y4425620D01*
X1260940Y4435020D01*
X1260660Y4437500D01*
X1260200Y4438840D01*
X1259980Y4440160D01*
X1260200Y4441480D01*
X1260660Y4442820D01*
X1260940Y4445300D01*
X1260940Y4449300D01*
X1261260Y4450840D01*
X1262120Y4452120D01*
X1263420Y4453000D01*
X1264940Y4453300D01*
X1898740Y4453300D01*
X1900260Y4453000D01*
X1901560Y4452120D01*
X1953600Y4400000D01*
X1956060Y4397980D01*
X1958660Y4396580D01*
X1962080Y4395580D01*
X1963560Y4394780D01*
X1964600Y4393420D01*
X1964960Y4391760D01*
X1964960Y4390500D01*
X1964640Y4388960D01*
X1963779Y4387660D01*
X1962480Y4386800D01*
X1960960Y4386500D01*
X1711459Y4386460D01*
X1708300Y4386140D01*
X1705460Y4385280D01*
X1702820Y4383880D01*
X1700380Y4381860D01*
X1573760Y4255260D01*
X1572520Y4254420D01*
G37*

%LPD*%
G36*
X1871740Y4229440D02*
G01*
X1870320Y4230020D01*
X1868860Y4231600D01*
X1868200Y4233200D01*
X1868260Y4234940D01*
X1869060Y4236480D01*
X1870440Y4237520D01*
X1872120Y4237900D01*
X1872880Y4237900D01*
X1874560Y4237520D01*
X1875940Y4236480D01*
X1876740Y4234940D01*
X1876800Y4233200D01*
X1876140Y4231600D01*
X1874680Y4230020D01*
X1873260Y4229440D01*
G37*

%LPD*%
G36*
X1264940Y4189600D02*
G01*
X1263420Y4189900D01*
X1262120Y4190779D01*
X1261260Y4192060D01*
X1260940Y4193600D01*
X1260940Y4198800D01*
X1260660Y4201280D01*
X1260200Y4202620D01*
X1259980Y4203940D01*
X1260200Y4205260D01*
X1260660Y4206600D01*
X1260940Y4209080D01*
X1260940Y4218480D01*
X1260660Y4220960D01*
X1260200Y4222300D01*
X1259980Y4223620D01*
X1260200Y4224940D01*
X1260660Y4226280D01*
X1260940Y4228760D01*
X1260940Y4233900D01*
X1261260Y4235440D01*
X1262120Y4236720D01*
X1263420Y4237600D01*
X1264940Y4237900D01*
X1363940Y4237900D01*
X1365480Y4237600D01*
X1366780Y4236720D01*
X1407080Y4196420D01*
X1407940Y4195120D01*
X1408240Y4193600D01*
X1407940Y4192060D01*
X1407080Y4190779D01*
X1405780Y4189900D01*
X1404240Y4189600D01*
G37*

%LPD*%
G36*
X1824500Y4175560D02*
G01*
X1822880Y4175779D01*
X1821480Y4176620D01*
X1820540Y4177960D01*
X1820200Y4179560D01*
X1820200Y4215440D01*
X1820540Y4217040D01*
X1821480Y4218380D01*
X1822880Y4219220D01*
X1824500Y4219440D01*
X1826060Y4218980D01*
X1827320Y4217940D01*
X1828060Y4216480D01*
X1829160Y4212420D01*
X1830780Y4208900D01*
X1833000Y4205740D01*
X1835740Y4203000D01*
X1838920Y4200780D01*
X1839980Y4199680D01*
X1840560Y4198260D01*
X1840560Y4196740D01*
X1839980Y4195320D01*
X1838920Y4194220D01*
X1835740Y4192000D01*
X1833000Y4189260D01*
X1830780Y4186100D01*
X1829160Y4182580D01*
X1828060Y4178519D01*
X1827320Y4177060D01*
X1826060Y4176019D01*
G37*

%LPD*%
G36*
X1824500Y4135560D02*
G01*
X1822880Y4135779D01*
X1821480Y4136620D01*
X1820540Y4137960D01*
X1820200Y4139560D01*
X1820200Y4170440D01*
X1820540Y4172040D01*
X1821480Y4173380D01*
X1822880Y4174220D01*
X1824500Y4174440D01*
X1826060Y4173980D01*
X1827320Y4172940D01*
X1828060Y4171480D01*
X1829160Y4167420D01*
X1830780Y4163900D01*
X1833000Y4160740D01*
X1835920Y4157820D01*
X1836780Y4156540D01*
X1837080Y4155000D01*
X1836780Y4153460D01*
X1835920Y4152180D01*
X1833000Y4149260D01*
X1830780Y4146100D01*
X1829160Y4142580D01*
X1828060Y4138519D01*
X1827320Y4137060D01*
X1826060Y4136019D01*
G37*

%LPD*%
G36*
X1830800Y4112360D02*
G01*
X1829259Y4112660D01*
X1827980Y4113519D01*
X1821380Y4120120D01*
X1820500Y4121420D01*
X1820200Y4122960D01*
X1820200Y4130440D01*
X1820540Y4132040D01*
X1821480Y4133380D01*
X1822880Y4134220D01*
X1824500Y4134440D01*
X1826060Y4133980D01*
X1827320Y4132940D01*
X1828060Y4131480D01*
X1829160Y4127420D01*
X1830780Y4123900D01*
X1833000Y4120740D01*
X1833620Y4120120D01*
X1834500Y4118820D01*
X1834800Y4117280D01*
X1834800Y4116360D01*
X1834500Y4114820D01*
X1833620Y4113519D01*
X1832340Y4112660D01*
G37*

%LPD*%
G36*
X1560800Y4015200D02*
G01*
X1559160Y4015560D01*
X1557820Y4016540D01*
X1556980Y4018000D01*
X1556819Y4019660D01*
X1557360Y4021259D01*
X1558500Y4022480D01*
X1559259Y4023000D01*
X1562000Y4025740D01*
X1564220Y4028900D01*
X1565100Y4030820D01*
X1566000Y4032040D01*
X1567300Y4032860D01*
X1568800Y4033120D01*
X1570280Y4032799D01*
X1571560Y4031940D01*
X1581480Y4022020D01*
X1582340Y4020740D01*
X1582640Y4019200D01*
X1582340Y4017660D01*
X1581480Y4016380D01*
X1580180Y4015500D01*
X1578640Y4015200D01*
G37*

%LPD*%
G36*
X1947960Y3995200D02*
G01*
X1946420Y3995500D01*
X1945120Y3996380D01*
X1926920Y4014580D01*
X1926060Y4015860D01*
X1925760Y4017400D01*
X1926060Y4018940D01*
X1926920Y4020220D01*
X1928220Y4021100D01*
X1929760Y4021400D01*
X1960960Y4021400D01*
X1962480Y4021100D01*
X1963779Y4020220D01*
X1964640Y4018940D01*
X1964960Y4017400D01*
X1964960Y4012240D01*
X1965240Y4009740D01*
X1965700Y4008420D01*
X1965920Y4007080D01*
X1965700Y4005760D01*
X1965240Y4004440D01*
X1964960Y4001940D01*
X1964960Y3999200D01*
X1964640Y3997660D01*
X1963779Y3996380D01*
X1962480Y3995500D01*
X1960960Y3995200D01*
G37*

%LPD*%
G36*
X1152960Y3995200D02*
G01*
X1151420Y3995500D01*
X1150120Y3996380D01*
X1091380Y4055120D01*
X1090500Y4056420D01*
X1090200Y4057960D01*
X1090200Y4257040D01*
X1090500Y4258580D01*
X1091380Y4259880D01*
X1102280Y4270780D01*
X1103740Y4271720D01*
X1105460Y4271940D01*
X1107120Y4271420D01*
X1108380Y4270260D01*
X1109060Y4268660D01*
X1108980Y4266920D01*
X1108160Y4263860D01*
X1107820Y4260000D01*
X1108160Y4256140D01*
X1109160Y4252420D01*
X1110780Y4248900D01*
X1113000Y4245740D01*
X1115740Y4243000D01*
X1118900Y4240780D01*
X1122420Y4239160D01*
X1126140Y4238160D01*
X1130000Y4237820D01*
X1133860Y4238160D01*
X1137580Y4239160D01*
X1141100Y4240780D01*
X1144260Y4243000D01*
X1145180Y4243920D01*
X1146300Y4244720D01*
X1147960Y4245120D01*
X1150800Y4245980D01*
X1153440Y4247380D01*
X1155520Y4249100D01*
X1157040Y4249860D01*
X1158740Y4249940D01*
X1160320Y4249300D01*
X1161480Y4248060D01*
X1162560Y4244620D01*
X1162780Y4243300D01*
X1162560Y4241980D01*
X1162080Y4240660D01*
X1161800Y4238160D01*
X1161800Y4228760D01*
X1162080Y4226280D01*
X1162560Y4224940D01*
X1162780Y4223620D01*
X1162560Y4222300D01*
X1162080Y4220960D01*
X1161800Y4218480D01*
X1161800Y4213280D01*
X1161500Y4211760D01*
X1160640Y4210460D01*
X1159340Y4209600D01*
X1157800Y4209280D01*
X1139280Y4209280D01*
X1136120Y4208980D01*
X1133280Y4208120D01*
X1131280Y4207240D01*
X1126140Y4206840D01*
X1122420Y4205840D01*
X1118900Y4204220D01*
X1115740Y4202000D01*
X1113000Y4199260D01*
X1110780Y4196100D01*
X1109160Y4192580D01*
X1108160Y4188860D01*
X1107820Y4185000D01*
X1108160Y4181139D01*
X1109160Y4177420D01*
X1110780Y4173900D01*
X1113000Y4170740D01*
X1115740Y4168000D01*
X1118900Y4165779D01*
X1122420Y4164160D01*
X1126140Y4163159D01*
X1130000Y4162820D01*
X1133860Y4163159D01*
X1137580Y4164160D01*
X1141100Y4165779D01*
X1144260Y4168000D01*
X1147000Y4170740D01*
X1149220Y4173900D01*
X1150460Y4176580D01*
X1151340Y4177799D01*
X1152600Y4178600D01*
X1154080Y4178880D01*
X1157800Y4178880D01*
X1159340Y4178580D01*
X1160640Y4177720D01*
X1161500Y4176420D01*
X1161800Y4174880D01*
X1161800Y4169720D01*
X1162080Y4167220D01*
X1162560Y4165880D01*
X1162780Y4164560D01*
X1162560Y4163240D01*
X1162080Y4161920D01*
X1161800Y4159420D01*
X1161800Y4150020D01*
X1162080Y4147540D01*
X1162560Y4146200D01*
X1162780Y4144880D01*
X1162560Y4143560D01*
X1162080Y4142220D01*
X1161800Y4139740D01*
X1161800Y4130340D01*
X1162080Y4127860D01*
X1162560Y4126520D01*
X1162780Y4125200D01*
X1162560Y4123880D01*
X1162080Y4122540D01*
X1161800Y4120059D01*
X1161800Y4114900D01*
X1161500Y4113360D01*
X1160640Y4112080D01*
X1159340Y4111200D01*
X1157800Y4110899D01*
X1156200Y4110899D01*
X1154740Y4111180D01*
X1153480Y4111960D01*
X1152600Y4113140D01*
X1152200Y4114560D01*
X1151840Y4118860D01*
X1150840Y4122580D01*
X1149220Y4126100D01*
X1147000Y4129260D01*
X1144260Y4132000D01*
X1141100Y4134220D01*
X1137580Y4135840D01*
X1133860Y4136840D01*
X1130000Y4137180D01*
X1126140Y4136840D01*
X1122420Y4135840D01*
X1118900Y4134220D01*
X1115740Y4132000D01*
X1113000Y4129260D01*
X1110780Y4126100D01*
X1109160Y4122580D01*
X1108160Y4118860D01*
X1107820Y4115000D01*
X1108160Y4111139D01*
X1109160Y4107420D01*
X1110780Y4103900D01*
X1113000Y4100740D01*
X1115740Y4098000D01*
X1117160Y4096820D01*
X1119400Y4094120D01*
X1128420Y4085100D01*
X1130860Y4083080D01*
X1133500Y4081680D01*
X1136340Y4080820D01*
X1139500Y4080500D01*
X1157800Y4080500D01*
X1159340Y4080200D01*
X1160640Y4079320D01*
X1161500Y4078039D01*
X1161800Y4076500D01*
X1161800Y4071280D01*
X1162080Y4068800D01*
X1162560Y4067480D01*
X1162780Y4066160D01*
X1162560Y4064840D01*
X1162080Y4063480D01*
X1161800Y4061000D01*
X1161800Y4051600D01*
X1162080Y4049120D01*
X1162560Y4047780D01*
X1162780Y4046460D01*
X1162560Y4045140D01*
X1162080Y4043800D01*
X1161800Y4041320D01*
X1161800Y4031920D01*
X1162080Y4029420D01*
X1162540Y4028100D01*
X1162780Y4026780D01*
X1162540Y4025460D01*
X1162080Y4024120D01*
X1161800Y4021640D01*
X1161800Y4012240D01*
X1162080Y4009740D01*
X1162560Y4008420D01*
X1162780Y4007080D01*
X1162560Y4005760D01*
X1162080Y4004420D01*
X1161800Y4001940D01*
X1161800Y3999200D01*
X1161500Y3997660D01*
X1160640Y3996380D01*
X1159340Y3995500D01*
X1157800Y3995200D01*
G37*

%LPD*%
G36*
X1856000Y3962620D02*
G01*
X1854820Y3962660D01*
X1853700Y3963060D01*
X1852740Y3963759D01*
X1785880Y4030600D01*
X1783440Y4032620D01*
X1780800Y4034020D01*
X1777960Y4034880D01*
X1774800Y4035200D01*
X1612960Y4035200D01*
X1611420Y4035500D01*
X1610120Y4036380D01*
X1382780Y4263700D01*
X1380340Y4265720D01*
X1377700Y4267120D01*
X1374860Y4267980D01*
X1371699Y4268300D01*
X1280960Y4268300D01*
X1279320Y4268640D01*
X1277980Y4269620D01*
X1277160Y4271040D01*
X1276680Y4275760D01*
X1275820Y4278600D01*
X1274420Y4281240D01*
X1272540Y4283540D01*
X1270240Y4285420D01*
X1267600Y4286820D01*
X1263140Y4288120D01*
X1261980Y4289000D01*
X1261220Y4290260D01*
X1260940Y4291680D01*
X1260940Y4297220D01*
X1260660Y4299700D01*
X1260200Y4301040D01*
X1259980Y4302360D01*
X1260200Y4303680D01*
X1260660Y4305020D01*
X1260940Y4307500D01*
X1260940Y4316900D01*
X1260660Y4319400D01*
X1260200Y4320720D01*
X1259980Y4322040D01*
X1260200Y4323360D01*
X1260660Y4324700D01*
X1260940Y4327200D01*
X1260940Y4332400D01*
X1261260Y4333940D01*
X1262120Y4335220D01*
X1263420Y4336100D01*
X1264940Y4336400D01*
X1440440Y4336400D01*
X1441980Y4336100D01*
X1443280Y4335220D01*
X1521720Y4256780D01*
X1522520Y4255640D01*
X1522880Y4254300D01*
X1523160Y4251140D01*
X1524160Y4247420D01*
X1525780Y4243900D01*
X1528000Y4240740D01*
X1530740Y4238000D01*
X1533920Y4235780D01*
X1534980Y4234680D01*
X1535560Y4233260D01*
X1535560Y4231740D01*
X1534980Y4230320D01*
X1533920Y4229220D01*
X1530740Y4227000D01*
X1528000Y4224260D01*
X1525780Y4221100D01*
X1524160Y4217580D01*
X1523160Y4213860D01*
X1522820Y4210000D01*
X1523160Y4206140D01*
X1524160Y4202420D01*
X1525780Y4198900D01*
X1528000Y4195740D01*
X1530740Y4193000D01*
X1533920Y4190779D01*
X1534980Y4189680D01*
X1535560Y4188260D01*
X1535560Y4186740D01*
X1534980Y4185320D01*
X1533920Y4184220D01*
X1530740Y4182000D01*
X1528000Y4179260D01*
X1525780Y4176100D01*
X1524160Y4172580D01*
X1523160Y4168860D01*
X1522820Y4165000D01*
X1523160Y4161139D01*
X1524160Y4157420D01*
X1525780Y4153900D01*
X1528000Y4150740D01*
X1530740Y4148000D01*
X1533899Y4145779D01*
X1537420Y4144160D01*
X1541140Y4143159D01*
X1545000Y4142820D01*
X1548860Y4143159D01*
X1552580Y4144160D01*
X1556100Y4145779D01*
X1559259Y4148000D01*
X1562000Y4150740D01*
X1564220Y4153900D01*
X1565840Y4157420D01*
X1566840Y4161139D01*
X1567120Y4164300D01*
X1567480Y4165640D01*
X1568280Y4166780D01*
X1736720Y4335220D01*
X1738020Y4336100D01*
X1739560Y4336400D01*
X1960960Y4336400D01*
X1962480Y4336100D01*
X1963779Y4335220D01*
X1964640Y4333940D01*
X1964960Y4332400D01*
X1964960Y4331400D01*
X1964640Y4329860D01*
X1963779Y4328580D01*
X1962480Y4327700D01*
X1960960Y4327400D01*
X1827400Y4327400D01*
X1824240Y4327080D01*
X1821399Y4326220D01*
X1818760Y4324820D01*
X1816320Y4322800D01*
X1754400Y4260880D01*
X1752380Y4258440D01*
X1750980Y4255800D01*
X1750120Y4252960D01*
X1749800Y4249800D01*
X1749800Y4095200D01*
X1750120Y4092040D01*
X1750980Y4089200D01*
X1752380Y4086560D01*
X1754400Y4084120D01*
X1868760Y3969740D01*
X1869620Y3968460D01*
X1869920Y3966920D01*
X1869620Y3965380D01*
X1868760Y3964100D01*
X1867460Y3963220D01*
X1865920Y3962919D01*
X1858740Y3962919D01*
G37*

%LPD*%
D10*
X1270000Y3925000D02*
G01*
X1215000Y3980000D01*
X1145000Y3980000D01*
X1075000Y4050000D01*
X1075000Y4265000D01*
X1102500Y4292500D01*
X1211400Y4292500D01*
X870000Y3925000D02*
G01*
X870000Y3980000D01*
X1970000Y3925000D02*
G01*
X1970000Y3930000D01*
X1930000Y3930000D01*
X1765000Y4095000D01*
X1765000Y4250000D01*
X1827200Y4312199D01*
X1964099Y4312199D01*
X2170000Y3925000D02*
G01*
X2165000Y3925000D01*
X2165000Y3930000D01*
X2131199Y3963800D01*
X1926199Y3963800D01*
X1785000Y4105000D01*
X1785000Y4240000D01*
X1817799Y4272800D01*
X1964099Y4272800D01*
X1211400Y4253099D02*
G01*
X1371899Y4253099D01*
X1605000Y4020000D01*
X1775000Y4020000D01*
X1870000Y3925000D01*
X2065000Y4390900D02*
G01*
X2075000Y4400900D01*
X2075000Y4455000D01*
X2061300Y4468699D01*
X1937399Y4468699D01*
X1921499Y4484600D01*
X810399Y4484600D01*
X770000Y4525000D01*
X2365000Y4525000D02*
G01*
X2370000Y4525000D01*
X2370000Y4485000D01*
X2098800Y4213800D01*
X2065000Y4213800D01*
X1211400Y4095700D02*
G01*
X1139300Y4095700D01*
X1130000Y4105000D01*
X1130000Y4115000D01*
X2179399Y3925000D02*
G01*
X2140599Y3925000D01*
X2014530Y4154719D02*
G01*
X2114722Y4154719D01*
X2135000Y4175000D01*
X2165000Y4175000D01*
X2190000Y4150000D01*
X2200000Y4150000D01*
X1211400Y4154699D02*
G01*
X1395299Y4154699D01*
X1550000Y4000000D01*
X1695000Y4000000D01*
X1770000Y3925000D01*
X1211400Y4351599D02*
G01*
X1448400Y4351599D01*
X1545000Y4255000D01*
X2014499Y4351599D02*
G01*
X1731599Y4351599D01*
X1545000Y4165000D01*
X2014530Y4292519D02*
G01*
X2062479Y4292519D01*
X2080000Y4275000D01*
X2014499Y4036599D02*
G01*
X1913400Y4036599D01*
X1850000Y4100000D01*
X1850000Y4135000D01*
X2014499Y4253099D02*
G01*
X1833100Y4253099D01*
X1805000Y4225000D01*
X1805000Y4115000D01*
X1940000Y3980000D01*
X2215000Y3980000D01*
X2270000Y3925000D01*
X2014499Y4095700D02*
G01*
X1944300Y4095700D01*
X1915000Y4125000D01*
X1915000Y4200000D01*
X1895000Y4220000D01*
X2014499Y4174400D02*
G01*
X2099399Y4174400D01*
X2125000Y4200000D01*
X2185000Y4200000D01*
X2370000Y4015000D01*
X2370000Y3925000D01*
X2014530Y4115349D02*
G01*
X1964647Y4115349D01*
X1935000Y4144998D01*
X1935000Y4220000D01*
X2014530Y4135039D02*
G01*
X2135038Y4135039D01*
X2150000Y4150000D01*
X1211379Y4036610D02*
G01*
X1336610Y4036610D01*
X1350000Y4050000D01*
X1211400Y4056300D02*
G01*
X1316300Y4056300D01*
X1350000Y4090000D01*
X1545000Y4040000D02*
G01*
X1410600Y4174398D01*
X1211400Y4174398D01*
X1211400Y4115300D02*
G01*
X1364700Y4115300D01*
X1410000Y4070000D01*
X1410000Y3965000D01*
X1370000Y3925000D01*
X1211400Y4095700D02*
G01*
X1261800Y4095700D01*
X1211400Y4272800D02*
G01*
X1157799Y4272800D01*
X1145000Y4260000D01*
X1130000Y4260000D01*
X1211379Y4410630D02*
G01*
X1074369Y4410630D01*
X1045000Y4440000D01*
X955000Y4440000D01*
X940000Y4425000D01*
X940000Y4055000D01*
X1070000Y3925000D01*
X1211400Y4135000D02*
G01*
X1385000Y4135000D01*
X1470000Y4050000D01*
X1470000Y3925000D01*
X1211382Y4371260D02*
G01*
X1013739Y4371260D01*
X975000Y4410000D01*
X1170000Y3925000D02*
G01*
X1055000Y4040000D01*
X1055000Y4275000D01*
X1092200Y4312199D01*
X1211400Y4312199D01*
X1211382Y4331889D02*
G01*
X1068109Y4331889D01*
X1060000Y4340000D01*
X1211382Y4390940D02*
G01*
X1035941Y4390940D01*
X1016881Y4410000D01*
X1015000Y4410000D01*
X2014530Y4075979D02*
G01*
X1934018Y4075979D01*
X1895000Y4115000D01*
X1895000Y4180000D01*
X1855000Y4220000D01*
X2014530Y4056298D02*
G01*
X1923701Y4056298D01*
X1875000Y4105000D01*
X1875000Y4150000D01*
X1850000Y4175000D01*
X2014530Y4213780D02*
G01*
X2014530Y4194090D01*
X670000Y4525000D02*
G01*
X726500Y4468499D01*
X1906700Y4468499D01*
X1964499Y4410599D01*
X2015000Y4410599D02*
G01*
X1964499Y4410599D01*
X2014499Y4390900D02*
G01*
X2065000Y4390900D01*
X2014499Y4312199D02*
G01*
X1964099Y4312199D01*
X2014499Y4056300D02*
G01*
X1964099Y4056300D01*
X2055200Y4213800D02*
G01*
X2065000Y4213800D01*
X2055200Y4213800D02*
G01*
X2014499Y4213800D01*
X2014499Y4272800D02*
G01*
X1964099Y4272800D01*
X1211400Y4075999D02*
G01*
X1261800Y4075999D01*
X1261801Y4076001D02*
G01*
X1291000Y4076001D01*
X1305000Y4090000D01*
X1211400Y4272800D02*
G01*
X1261800Y4272800D01*
X1211379Y4233460D02*
G01*
X1211379Y4194090D01*
X1211382Y4194088D02*
G01*
X1139089Y4194088D01*
X1130000Y4185000D01*
X870000Y4025000D02*
G01*
X870000Y4050000D01*
X2018699Y4371300D02*
G01*
X1711260Y4371260D01*
X1550000Y4210000D01*
X1545000Y4210000D01*
X2014499Y4233499D02*
G01*
X2078500Y4233499D01*
X2110000Y4265000D01*
X2110000Y4340000D01*
X2078699Y4371300D01*
X2018699Y4371300D01*
X870000Y3980000D02*
G01*
X870000Y3985000D01*
X730000Y3985000D01*
X670000Y3925000D01*
G36*
X870000Y3980000D02*
G01*
X850315Y3980000D01*
X850315Y3991810D01*
X870000Y3999684D01*
X889684Y3991810D01*
X889684Y3980000D01*
G37*
G36*
X870000Y4025000D02*
G01*
X889684Y4025000D01*
X889684Y4005315D01*
X870000Y4013189D01*
X850315Y4005315D01*
X850315Y4025000D01*
G37*
G36*
X1172007Y4454920D02*
G01*
X1250748Y4454920D01*
X1250748Y4445077D01*
X1172007Y4445077D01*
G37*
G36*
X1172007Y4435230D02*
G01*
X1250748Y4435230D01*
X1250748Y4425387D01*
X1172007Y4425387D01*
G37*
G36*
X1172007Y4415551D02*
G01*
X1250748Y4415551D01*
X1250748Y4405708D01*
X1172007Y4405708D01*
G37*
G36*
X1172007Y4395861D02*
G01*
X1250748Y4395861D01*
X1250748Y4386017D01*
X1172007Y4386017D01*
G37*
G36*
X1172007Y4376181D02*
G01*
X1250748Y4376181D01*
X1250748Y4366338D01*
X1172007Y4366338D01*
G37*
G36*
X1172007Y4356500D02*
G01*
X1250748Y4356500D01*
X1250748Y4346658D01*
X1172007Y4346658D01*
G37*
G36*
X1172007Y4336810D02*
G01*
X1250748Y4336810D01*
X1250748Y4326968D01*
X1172007Y4326968D01*
G37*
G36*
X1172007Y4317121D02*
G01*
X1250748Y4317121D01*
X1250748Y4307278D01*
X1172007Y4307278D01*
G37*
G36*
X1172007Y4297440D02*
G01*
X1250748Y4297440D01*
X1250748Y4287597D01*
X1172007Y4287597D01*
G37*
G36*
X1172007Y4277750D02*
G01*
X1250748Y4277750D01*
X1250748Y4267908D01*
X1172007Y4267908D01*
G37*
G36*
X1172007Y4258071D02*
G01*
X1250748Y4258071D01*
X1250748Y4248227D01*
X1172007Y4248227D01*
G37*
G36*
X1172007Y4238380D02*
G01*
X1250748Y4238380D01*
X1250748Y4228537D01*
X1172007Y4228537D01*
G37*
G36*
X1172007Y4218701D02*
G01*
X1250748Y4218701D01*
X1250748Y4208858D01*
X1172007Y4208858D01*
G37*
G36*
X1172007Y4199011D02*
G01*
X1250748Y4199011D01*
X1250748Y4189167D01*
X1172007Y4189167D01*
G37*
G36*
X1172007Y4179331D02*
G01*
X1250748Y4179331D01*
X1250748Y4169488D01*
X1172007Y4169488D01*
G37*
G36*
X1172007Y4159641D02*
G01*
X1250748Y4159641D01*
X1250748Y4149798D01*
X1172007Y4149798D01*
G37*
G36*
X1172007Y4139960D02*
G01*
X1250748Y4139960D01*
X1250748Y4130118D01*
X1172007Y4130118D01*
G37*
G36*
X1172007Y4120270D02*
G01*
X1250748Y4120270D01*
X1250748Y4110428D01*
X1172007Y4110428D01*
G37*
G36*
X1172007Y4100590D02*
G01*
X1250748Y4100590D01*
X1250748Y4090747D01*
X1172007Y4090747D01*
G37*
G36*
X1172007Y4080900D02*
G01*
X1250748Y4080900D01*
X1250748Y4071057D01*
X1172007Y4071057D01*
G37*
G36*
X1975155Y4297440D02*
G01*
X2053896Y4297440D01*
X2053896Y4287597D01*
X1975155Y4287597D01*
G37*
G36*
X1975155Y4277755D02*
G01*
X2053896Y4277755D01*
X2053896Y4267912D01*
X1975155Y4267912D01*
G37*
G36*
X1975155Y4258071D02*
G01*
X2053896Y4258071D01*
X2053896Y4248227D01*
X1975155Y4248227D01*
G37*
G36*
X1975155Y4238386D02*
G01*
X2053896Y4238386D01*
X2053896Y4228543D01*
X1975155Y4228543D01*
G37*
G36*
X1975158Y4218701D02*
G01*
X2053897Y4218701D01*
X2053897Y4208858D01*
X1975158Y4208858D01*
G37*
G36*
X1975155Y4199014D02*
G01*
X2053896Y4199014D01*
X2053896Y4189171D01*
X1975155Y4189171D01*
G37*
G36*
X1975155Y4179330D02*
G01*
X2053896Y4179330D01*
X2053896Y4169486D01*
X1975155Y4169486D01*
G37*
G36*
X1975155Y4159645D02*
G01*
X2053896Y4159645D01*
X2053896Y4149801D01*
X1975155Y4149801D01*
G37*
G36*
X1975155Y4139960D02*
G01*
X2053896Y4139960D01*
X2053896Y4130117D01*
X1975155Y4130117D01*
G37*
G36*
X1975155Y4120275D02*
G01*
X2053896Y4120275D01*
X2053896Y4110432D01*
X1975155Y4110432D01*
G37*
G36*
X1975155Y4100590D02*
G01*
X2053896Y4100590D01*
X2053896Y4090747D01*
X1975155Y4090747D01*
G37*
G36*
X1975155Y4080904D02*
G01*
X2053896Y4080904D01*
X2053896Y4071062D01*
X1975155Y4071062D01*
G37*
G36*
X1975155Y4061221D02*
G01*
X2053896Y4061221D01*
X2053896Y4051377D01*
X1975155Y4051377D01*
G37*
G36*
X1975155Y4041534D02*
G01*
X2053896Y4041534D01*
X2053896Y4031691D01*
X1975155Y4031691D01*
G37*
G36*
X1975155Y4021849D02*
G01*
X2053896Y4021849D01*
X2053896Y4012006D01*
X1975155Y4012006D01*
G37*
G36*
X1975155Y4002166D02*
G01*
X2053896Y4002166D01*
X2053896Y3992321D01*
X1975155Y3992321D01*
G37*
G36*
X1172004Y4002165D02*
G01*
X1250745Y4002165D01*
X1250745Y3992321D01*
X1172004Y3992321D01*
G37*
G36*
X1172004Y4021849D02*
G01*
X1250745Y4021849D01*
X1250745Y4012006D01*
X1172004Y4012006D01*
G37*
G36*
X1172004Y4041534D02*
G01*
X1250745Y4041534D01*
X1250745Y4031691D01*
X1172004Y4031691D01*
G37*
G36*
X1172004Y4061219D02*
G01*
X1250745Y4061219D01*
X1250745Y4051377D01*
X1172004Y4051377D01*
G37*
G36*
X1975155Y4317125D02*
G01*
X2053896Y4317125D01*
X2053896Y4307283D01*
X1975155Y4307283D01*
G37*
G36*
X1975155Y4336810D02*
G01*
X2053896Y4336810D01*
X2053896Y4326968D01*
X1975155Y4326968D01*
G37*
G36*
X1975155Y4356496D02*
G01*
X2053896Y4356496D01*
X2053896Y4346653D01*
X1975155Y4346653D01*
G37*
G36*
X1975155Y4376181D02*
G01*
X2053896Y4376181D01*
X2053896Y4366338D01*
X1975155Y4366338D01*
G37*
G36*
X1975155Y4395866D02*
G01*
X2053896Y4395866D01*
X2053896Y4386023D01*
X1975155Y4386023D01*
G37*
G36*
X1975627Y4415551D02*
G01*
X2054368Y4415551D01*
X2054368Y4405708D01*
X1975627Y4405708D01*
G37*
G36*
X1975627Y4435236D02*
G01*
X2054368Y4435236D01*
X2054368Y4425392D01*
X1975627Y4425392D01*
G37*
G36*
X1975627Y4454920D02*
G01*
X2054368Y4454920D01*
X2054368Y4445077D01*
X1975627Y4445077D01*
G37*
G36*
X2342280Y4513519D02*
G01*
X2358519Y4497280D01*
X2381480Y4497280D01*
X2397719Y4513519D01*
X2397719Y4536480D01*
X2381480Y4552719D01*
X2358519Y4552719D01*
X2342280Y4536480D01*
X2342280Y4513519D01*
G37*
G36*
X2242280Y4513519D02*
G01*
X2258519Y4497280D01*
X2281480Y4497280D01*
X2297719Y4513519D01*
X2297719Y4536480D01*
X2281480Y4552719D01*
X2258519Y4552719D01*
X2242280Y4536480D01*
X2242280Y4513519D01*
G37*
G36*
X2142280Y4513519D02*
G01*
X2158519Y4497280D01*
X2181480Y4497280D01*
X2197719Y4513519D01*
X2197719Y4536480D01*
X2181480Y4552719D01*
X2158519Y4552719D01*
X2142280Y4536480D01*
X2142280Y4513519D01*
G37*
G36*
X2042280Y4513519D02*
G01*
X2058519Y4497280D01*
X2081480Y4497280D01*
X2097719Y4513519D01*
X2097719Y4536480D01*
X2081480Y4552719D01*
X2058519Y4552719D01*
X2042280Y4536480D01*
X2042280Y4513519D01*
G37*
G36*
X1942280Y4513519D02*
G01*
X1958519Y4497280D01*
X1981480Y4497280D01*
X1997719Y4513519D01*
X1997719Y4536480D01*
X1981480Y4552719D01*
X1958519Y4552719D01*
X1942280Y4536480D01*
X1942280Y4513519D01*
G37*
G36*
X1842280Y4513519D02*
G01*
X1858519Y4497280D01*
X1881480Y4497280D01*
X1897719Y4513519D01*
X1897719Y4536480D01*
X1881480Y4552719D01*
X1858519Y4552719D01*
X1842280Y4536480D01*
X1842280Y4513519D01*
G37*
G36*
X1742280Y4513519D02*
G01*
X1758519Y4497280D01*
X1781480Y4497280D01*
X1797719Y4513519D01*
X1797719Y4536480D01*
X1781480Y4552719D01*
X1758519Y4552719D01*
X1742280Y4536480D01*
X1742280Y4513519D01*
G37*
G36*
X1642290Y4513519D02*
G01*
X1658519Y4497280D01*
X1681480Y4497280D01*
X1697719Y4513519D01*
X1697719Y4536480D01*
X1681480Y4552719D01*
X1658519Y4552719D01*
X1642290Y4536480D01*
X1642290Y4513519D01*
G37*
G36*
X1542290Y4513519D02*
G01*
X1558519Y4497280D01*
X1581480Y4497280D01*
X1597719Y4513519D01*
X1597719Y4536480D01*
X1581480Y4552719D01*
X1558519Y4552719D01*
X1542290Y4536480D01*
X1542290Y4513519D01*
G37*
G36*
X1442290Y4513519D02*
G01*
X1458519Y4497280D01*
X1481480Y4497280D01*
X1497719Y4513519D01*
X1497719Y4536480D01*
X1481480Y4552719D01*
X1458519Y4552719D01*
X1442290Y4536480D01*
X1442290Y4513519D01*
G37*
G36*
X1342290Y4513519D02*
G01*
X1358519Y4497280D01*
X1381480Y4497280D01*
X1397719Y4513519D01*
X1397719Y4536480D01*
X1381480Y4552719D01*
X1358519Y4552719D01*
X1342290Y4536480D01*
X1342290Y4513519D01*
G37*
G36*
X1242290Y4513519D02*
G01*
X1258519Y4497280D01*
X1281480Y4497280D01*
X1297719Y4513519D01*
X1297719Y4536480D01*
X1281480Y4552719D01*
X1258519Y4552719D01*
X1242290Y4536480D01*
X1242290Y4513519D01*
G37*
G36*
X1142290Y4513519D02*
G01*
X1158519Y4497280D01*
X1181480Y4497280D01*
X1197719Y4513519D01*
X1197719Y4536480D01*
X1181480Y4552719D01*
X1158519Y4552719D01*
X1142290Y4536480D01*
X1142290Y4513519D01*
G37*
G36*
X1042290Y4513519D02*
G01*
X1058519Y4497280D01*
X1081480Y4497280D01*
X1097719Y4513519D01*
X1097719Y4536480D01*
X1081480Y4552719D01*
X1058519Y4552719D01*
X1042290Y4536480D01*
X1042290Y4513519D01*
G37*
G36*
X942290Y4513519D02*
G01*
X958519Y4497280D01*
X981480Y4497280D01*
X997719Y4513519D01*
X997719Y4536480D01*
X981480Y4552719D01*
X958519Y4552719D01*
X942290Y4536480D01*
X942290Y4513519D01*
G37*
G36*
X842290Y4513519D02*
G01*
X858519Y4497280D01*
X881480Y4497280D01*
X897719Y4513519D01*
X897719Y4536480D01*
X881480Y4552719D01*
X858519Y4552719D01*
X842290Y4536480D01*
X842290Y4513519D01*
G37*
G36*
X742289Y4513519D02*
G01*
X758519Y4497280D01*
X781480Y4497280D01*
X797719Y4513519D01*
X797719Y4536480D01*
X781480Y4552719D01*
X758519Y4552719D01*
X742289Y4536480D01*
X742289Y4513519D01*
G37*
G36*
X642289Y4513519D02*
G01*
X658519Y4497280D01*
X681480Y4497280D01*
X697719Y4513519D01*
X697719Y4536480D01*
X681480Y4552719D01*
X658519Y4552719D01*
X642289Y4536480D01*
X642289Y4513519D01*
G37*
G36*
X697719Y3936480D02*
G01*
X681480Y3952719D01*
X658519Y3952719D01*
X642289Y3936480D01*
X642289Y3913519D01*
X658519Y3897280D01*
X681480Y3897280D01*
X697719Y3913519D01*
X697719Y3936480D01*
G37*
G36*
X797719Y3936480D02*
G01*
X781480Y3952719D01*
X758519Y3952719D01*
X742289Y3936480D01*
X742289Y3913519D01*
X758519Y3897280D01*
X781480Y3897280D01*
X797719Y3913519D01*
X797719Y3936480D01*
G37*
G36*
X897719Y3936480D02*
G01*
X881480Y3952719D01*
X858519Y3952719D01*
X842290Y3936480D01*
X842290Y3913519D01*
X858519Y3897280D01*
X881480Y3897280D01*
X897719Y3913519D01*
X897719Y3936480D01*
G37*
G36*
X997719Y3936480D02*
G01*
X981480Y3952719D01*
X958519Y3952719D01*
X942290Y3936480D01*
X942290Y3913519D01*
X958519Y3897280D01*
X981480Y3897280D01*
X997719Y3913519D01*
X997719Y3936480D01*
G37*
G36*
X1097719Y3936480D02*
G01*
X1081480Y3952719D01*
X1058519Y3952719D01*
X1042290Y3936480D01*
X1042290Y3913519D01*
X1058519Y3897280D01*
X1081480Y3897280D01*
X1097719Y3913519D01*
X1097719Y3936480D01*
G37*
G36*
X1197719Y3936480D02*
G01*
X1181480Y3952719D01*
X1158519Y3952719D01*
X1142290Y3936480D01*
X1142290Y3913519D01*
X1158519Y3897280D01*
X1181480Y3897280D01*
X1197719Y3913519D01*
X1197719Y3936480D01*
G37*
G36*
X1297719Y3936480D02*
G01*
X1281480Y3952719D01*
X1258519Y3952719D01*
X1242290Y3936480D01*
X1242290Y3913519D01*
X1258519Y3897280D01*
X1281480Y3897280D01*
X1297719Y3913519D01*
X1297719Y3936480D01*
G37*
G36*
X1397719Y3936480D02*
G01*
X1381480Y3952719D01*
X1358519Y3952719D01*
X1342290Y3936480D01*
X1342290Y3913519D01*
X1358519Y3897280D01*
X1381480Y3897280D01*
X1397719Y3913519D01*
X1397719Y3936480D01*
G37*
G36*
X1497719Y3936480D02*
G01*
X1481480Y3952719D01*
X1458519Y3952719D01*
X1442290Y3936480D01*
X1442290Y3913519D01*
X1458519Y3897280D01*
X1481480Y3897280D01*
X1497719Y3913519D01*
X1497719Y3936480D01*
G37*
G36*
X1597719Y3936480D02*
G01*
X1581480Y3952719D01*
X1558519Y3952719D01*
X1542290Y3936480D01*
X1542290Y3913519D01*
X1558519Y3897280D01*
X1581480Y3897280D01*
X1597719Y3913519D01*
X1597719Y3936480D01*
G37*
G36*
X1697719Y3936480D02*
G01*
X1681480Y3952719D01*
X1658519Y3952719D01*
X1642290Y3936480D01*
X1642290Y3913519D01*
X1658519Y3897280D01*
X1681480Y3897280D01*
X1697719Y3913519D01*
X1697719Y3936480D01*
G37*
G36*
X1797719Y3936480D02*
G01*
X1781480Y3952719D01*
X1758519Y3952719D01*
X1742280Y3936480D01*
X1742280Y3913519D01*
X1758519Y3897280D01*
X1781480Y3897280D01*
X1797719Y3913519D01*
X1797719Y3936480D01*
G37*
G36*
X1897719Y3936480D02*
G01*
X1881480Y3952719D01*
X1858519Y3952719D01*
X1842280Y3936480D01*
X1842280Y3913519D01*
X1858519Y3897280D01*
X1881480Y3897280D01*
X1897719Y3913519D01*
X1897719Y3936480D01*
G37*
G36*
X1997719Y3936480D02*
G01*
X1981480Y3952719D01*
X1958519Y3952719D01*
X1942280Y3936480D01*
X1942280Y3913519D01*
X1958519Y3897280D01*
X1981480Y3897280D01*
X1997719Y3913519D01*
X1997719Y3936480D01*
G37*
G36*
X2097719Y3936480D02*
G01*
X2081480Y3952719D01*
X2058519Y3952719D01*
X2042280Y3936480D01*
X2042280Y3913519D01*
X2058519Y3897280D01*
X2081480Y3897280D01*
X2097719Y3913519D01*
X2097719Y3936480D01*
G37*
G36*
X2197719Y3936480D02*
G01*
X2181480Y3952719D01*
X2158519Y3952719D01*
X2142280Y3936480D01*
X2142280Y3913519D01*
X2158519Y3897280D01*
X2181480Y3897280D01*
X2197719Y3913519D01*
X2197719Y3936480D01*
G37*
G36*
X2297719Y3936480D02*
G01*
X2281480Y3952719D01*
X2258519Y3952719D01*
X2242280Y3936480D01*
X2242280Y3913519D01*
X2258519Y3897280D01*
X2281480Y3897280D01*
X2297719Y3913519D01*
X2297719Y3936480D01*
G37*
G36*
X2397719Y3936480D02*
G01*
X2381480Y3952719D01*
X2358519Y3952719D01*
X2342280Y3936480D01*
X2342280Y3913519D01*
X2358519Y3897280D01*
X2381480Y3897280D01*
X2397719Y3913519D01*
X2397719Y3936480D01*
G37*
D11*
G01*
X1545000Y4165000D03*
G01*
X1350000Y4090000D03*
G01*
X1350000Y4050000D03*
G01*
X1850000Y4135000D03*
G01*
X1850000Y4175000D03*
G01*
X1850000Y4220000D03*
G01*
X1895000Y4220000D03*
G01*
X1935000Y4220000D03*
G01*
X2150000Y4150000D03*
G01*
X1305000Y4090000D03*
G01*
X1545000Y4040000D03*
G01*
X1545000Y4210000D03*
G01*
X1545000Y4255000D03*
G01*
X975000Y4410000D03*
G01*
X1015000Y4410000D03*
G01*
X1060000Y4340000D03*
G01*
X1130000Y4260000D03*
G01*
X1130000Y4185000D03*
G01*
X1130000Y4115000D03*
G01*
X2200000Y4150000D03*
G01*
X2080000Y4275000D03*
G01*
X870000Y4050000D03*
M02*
