G04 Layer: TopSolderMaskLayer*
G04 EasyEDA v6.5.3, 2022-05-10 11:38:20*
G04 ab62d8b6a5be4e798c685c15e3818e9c,b03e5731a7a74599b12e1065cb71c7ef,10*
G04 Gerber Generator version 0.2*
G04 Scale: 100 percent, Rotated: No, Reflected: No *
G04 Dimensions in inches *
G04 leading zeros omitted , absolute positions ,3 integer and 6 decimal *
%FSLAX36Y36*%
%MOIN*%

%ADD10C,0.0001*%

%LPD*%
G36*
X846300Y3975999D02*
G01*
X846300Y3994499D01*
X870000Y4004000D01*
X893699Y3994499D01*
X893699Y3975999D01*
G37*
G36*
X846300Y3999400D02*
G01*
X846300Y4029000D01*
X893699Y4029000D01*
X893699Y3999400D01*
X870000Y4008899D01*
G37*
G36*
X1171599Y4444699D02*
G01*
X1171599Y4455300D01*
X1251099Y4455300D01*
X1251099Y4444699D01*
G37*
G36*
X1171599Y4425000D02*
G01*
X1171599Y4435599D01*
X1251099Y4435599D01*
X1251099Y4425000D01*
G37*
G36*
X1171599Y4405300D02*
G01*
X1171599Y4415900D01*
X1251099Y4415900D01*
X1251099Y4405300D01*
G37*
G36*
X1171599Y4385599D02*
G01*
X1171599Y4396300D01*
X1251099Y4396300D01*
X1251099Y4385599D01*
G37*
G36*
X1171599Y4365900D02*
G01*
X1171599Y4376599D01*
X1251099Y4376599D01*
X1251099Y4365900D01*
G37*
G36*
X1171599Y4346300D02*
G01*
X1171599Y4356900D01*
X1251099Y4356900D01*
X1251099Y4346300D01*
G37*
G36*
X1171599Y4326599D02*
G01*
X1171599Y4337199D01*
X1251099Y4337199D01*
X1251099Y4326599D01*
G37*
G36*
X1171599Y4306900D02*
G01*
X1171599Y4317500D01*
X1251099Y4317500D01*
X1251099Y4306900D01*
G37*
G36*
X1171599Y4287199D02*
G01*
X1171599Y4297800D01*
X1251099Y4297800D01*
X1251099Y4287199D01*
G37*
G36*
X1171599Y4267500D02*
G01*
X1171599Y4278099D01*
X1251099Y4278099D01*
X1251099Y4267500D01*
G37*
G36*
X1171599Y4247800D02*
G01*
X1171599Y4258499D01*
X1251099Y4258499D01*
X1251099Y4247800D01*
G37*
G36*
X1171599Y4228099D02*
G01*
X1171599Y4238800D01*
X1251099Y4238800D01*
X1251099Y4228099D01*
G37*
G36*
X1171599Y4208499D02*
G01*
X1171599Y4219099D01*
X1251099Y4219099D01*
X1251099Y4208499D01*
G37*
G36*
X1171599Y4188800D02*
G01*
X1171599Y4199400D01*
X1251099Y4199400D01*
X1251099Y4188800D01*
G37*
G36*
X1171599Y4169099D02*
G01*
X1171599Y4179699D01*
X1251099Y4179699D01*
X1251099Y4169099D01*
G37*
G36*
X1171599Y4149400D02*
G01*
X1171599Y4160000D01*
X1251099Y4160000D01*
X1251099Y4149400D01*
G37*
G36*
X1171599Y4129699D02*
G01*
X1171599Y4140399D01*
X1251099Y4140399D01*
X1251099Y4129699D01*
G37*
G36*
X1171599Y4110000D02*
G01*
X1171599Y4120700D01*
X1251099Y4120700D01*
X1251099Y4110000D01*
G37*
G36*
X1171599Y4090399D02*
G01*
X1171599Y4100999D01*
X1251099Y4100999D01*
X1251099Y4090399D01*
G37*
G36*
X1171599Y4070700D02*
G01*
X1171599Y4081300D01*
X1251099Y4081300D01*
X1251099Y4070700D01*
G37*
G36*
X1974799Y4287199D02*
G01*
X1974799Y4297800D01*
X2054300Y4297800D01*
X2054300Y4287199D01*
G37*
G36*
X1974799Y4267500D02*
G01*
X1974799Y4278099D01*
X2054300Y4278099D01*
X2054300Y4267500D01*
G37*
G36*
X1974799Y4247800D02*
G01*
X1974799Y4258499D01*
X2054300Y4258499D01*
X2054300Y4247800D01*
G37*
G36*
X1974799Y4228099D02*
G01*
X1974799Y4238800D01*
X2054300Y4238800D01*
X2054300Y4228099D01*
G37*
G36*
X1974799Y4208499D02*
G01*
X1974799Y4219099D01*
X2054300Y4219099D01*
X2054300Y4208499D01*
G37*
G36*
X1974799Y4188800D02*
G01*
X1974799Y4199400D01*
X2054300Y4199400D01*
X2054300Y4188800D01*
G37*
G36*
X1974799Y4169099D02*
G01*
X1974799Y4179699D01*
X2054300Y4179699D01*
X2054300Y4169099D01*
G37*
G36*
X1974799Y4149400D02*
G01*
X1974799Y4160000D01*
X2054300Y4160000D01*
X2054300Y4149400D01*
G37*
G36*
X1974799Y4129699D02*
G01*
X1974799Y4140399D01*
X2054300Y4140399D01*
X2054300Y4129699D01*
G37*
G36*
X1974799Y4110000D02*
G01*
X1974799Y4120700D01*
X2054300Y4120700D01*
X2054300Y4110000D01*
G37*
G36*
X1974799Y4090399D02*
G01*
X1974799Y4100999D01*
X2054300Y4100999D01*
X2054300Y4090399D01*
G37*
G36*
X1974799Y4070700D02*
G01*
X1974799Y4081300D01*
X2054300Y4081300D01*
X2054300Y4070700D01*
G37*
G36*
X1974799Y4050999D02*
G01*
X1974799Y4061599D01*
X2054300Y4061599D01*
X2054300Y4050999D01*
G37*
G36*
X1974799Y4031300D02*
G01*
X1974799Y4041900D01*
X2054300Y4041900D01*
X2054300Y4031300D01*
G37*
G36*
X1974799Y4011599D02*
G01*
X1974799Y4022199D01*
X2054300Y4022199D01*
X2054300Y4011599D01*
G37*
G36*
X1974799Y3991900D02*
G01*
X1974799Y4002600D01*
X2054300Y4002600D01*
X2054300Y3991900D01*
G37*
G36*
X1171599Y3991900D02*
G01*
X1171599Y4002600D01*
X1251099Y4002600D01*
X1251099Y3991900D01*
G37*
G36*
X1171599Y4011599D02*
G01*
X1171599Y4022199D01*
X1251099Y4022199D01*
X1251099Y4011599D01*
G37*
G36*
X1171599Y4031300D02*
G01*
X1171599Y4041900D01*
X1251099Y4041900D01*
X1251099Y4031300D01*
G37*
G36*
X1171599Y4050999D02*
G01*
X1171599Y4061599D01*
X1251099Y4061599D01*
X1251099Y4050999D01*
G37*
G36*
X1974799Y4306900D02*
G01*
X1974799Y4317500D01*
X2054300Y4317500D01*
X2054300Y4306900D01*
G37*
G36*
X1974799Y4326599D02*
G01*
X1974799Y4337199D01*
X2054300Y4337199D01*
X2054300Y4326599D01*
G37*
G36*
X1974799Y4346300D02*
G01*
X1974799Y4356900D01*
X2054300Y4356900D01*
X2054300Y4346300D01*
G37*
G36*
X1974799Y4365900D02*
G01*
X1974799Y4376599D01*
X2054300Y4376599D01*
X2054300Y4365900D01*
G37*
G36*
X1974799Y4385599D02*
G01*
X1974799Y4396300D01*
X2054300Y4396300D01*
X2054300Y4385599D01*
G37*
G36*
X1975200Y4405300D02*
G01*
X1975200Y4415900D01*
X2054799Y4415900D01*
X2054799Y4405300D01*
G37*
G36*
X1975200Y4425000D02*
G01*
X1975200Y4435599D01*
X2054799Y4435599D01*
X2054799Y4425000D01*
G37*
G36*
X1975200Y4444699D02*
G01*
X1975200Y4455300D01*
X2054799Y4455300D01*
X2054799Y4444699D01*
G37*
G36*
X2356899Y4493299D02*
G01*
X2338299Y4511900D01*
X2338299Y4538099D01*
X2356899Y4556700D01*
X2383100Y4556700D01*
X2401700Y4538099D01*
X2401700Y4511900D01*
X2383100Y4493299D01*
G37*
G36*
X2256899Y4493299D02*
G01*
X2238299Y4511900D01*
X2238299Y4538099D01*
X2256899Y4556700D01*
X2283100Y4556700D01*
X2301700Y4538099D01*
X2301700Y4511900D01*
X2283100Y4493299D01*
G37*
G36*
X2156899Y4493299D02*
G01*
X2138299Y4511900D01*
X2138299Y4538099D01*
X2156899Y4556700D01*
X2183100Y4556700D01*
X2201700Y4538099D01*
X2201700Y4511900D01*
X2183100Y4493299D01*
G37*
G36*
X2056899Y4493299D02*
G01*
X2038299Y4511900D01*
X2038299Y4538099D01*
X2056899Y4556700D01*
X2083100Y4556700D01*
X2101700Y4538099D01*
X2101700Y4511900D01*
X2083100Y4493299D01*
G37*
G36*
X1956899Y4493299D02*
G01*
X1938299Y4511900D01*
X1938299Y4538099D01*
X1956899Y4556700D01*
X1983100Y4556700D01*
X2001700Y4538099D01*
X2001700Y4511900D01*
X1983100Y4493299D01*
G37*
G36*
X1856899Y4493299D02*
G01*
X1838299Y4511900D01*
X1838299Y4538099D01*
X1856899Y4556700D01*
X1883100Y4556700D01*
X1901700Y4538099D01*
X1901700Y4511900D01*
X1883100Y4493299D01*
G37*
G36*
X1756899Y4493299D02*
G01*
X1738299Y4511900D01*
X1738299Y4538099D01*
X1756899Y4556700D01*
X1783100Y4556700D01*
X1801700Y4538099D01*
X1801700Y4511900D01*
X1783100Y4493299D01*
G37*
G36*
X1656899Y4493299D02*
G01*
X1638299Y4511900D01*
X1638299Y4538099D01*
X1656899Y4556700D01*
X1683100Y4556700D01*
X1701700Y4538099D01*
X1701700Y4511900D01*
X1683100Y4493299D01*
G37*
G36*
X1556899Y4493299D02*
G01*
X1538299Y4511900D01*
X1538299Y4538099D01*
X1556899Y4556700D01*
X1583100Y4556700D01*
X1601700Y4538099D01*
X1601700Y4511900D01*
X1583100Y4493299D01*
G37*
G36*
X1456899Y4493299D02*
G01*
X1438299Y4511900D01*
X1438299Y4538099D01*
X1456899Y4556700D01*
X1483100Y4556700D01*
X1501700Y4538099D01*
X1501700Y4511900D01*
X1483100Y4493299D01*
G37*
G36*
X1356899Y4493299D02*
G01*
X1338299Y4511900D01*
X1338299Y4538099D01*
X1356899Y4556700D01*
X1383100Y4556700D01*
X1401700Y4538099D01*
X1401700Y4511900D01*
X1383100Y4493299D01*
G37*
G36*
X1256899Y4493299D02*
G01*
X1238299Y4511900D01*
X1238299Y4538099D01*
X1256899Y4556700D01*
X1283100Y4556700D01*
X1301700Y4538099D01*
X1301700Y4511900D01*
X1283100Y4493299D01*
G37*
G36*
X1156899Y4493299D02*
G01*
X1138299Y4511900D01*
X1138299Y4538099D01*
X1156899Y4556700D01*
X1183100Y4556700D01*
X1201700Y4538099D01*
X1201700Y4511900D01*
X1183100Y4493299D01*
G37*
G36*
X1056899Y4493299D02*
G01*
X1038299Y4511900D01*
X1038299Y4538099D01*
X1056899Y4556700D01*
X1083100Y4556700D01*
X1101700Y4538099D01*
X1101700Y4511900D01*
X1083100Y4493299D01*
G37*
G36*
X956899Y4493299D02*
G01*
X938299Y4511900D01*
X938299Y4538099D01*
X956899Y4556700D01*
X983100Y4556700D01*
X1001700Y4538099D01*
X1001700Y4511900D01*
X983100Y4493299D01*
G37*
G36*
X856899Y4493299D02*
G01*
X838299Y4511900D01*
X838299Y4538099D01*
X856899Y4556700D01*
X883100Y4556700D01*
X901700Y4538099D01*
X901700Y4511900D01*
X883100Y4493299D01*
G37*
G36*
X756900Y4493299D02*
G01*
X738299Y4511900D01*
X738299Y4538099D01*
X756900Y4556700D01*
X783100Y4556700D01*
X801700Y4538099D01*
X801700Y4511900D01*
X783100Y4493299D01*
G37*
G36*
X656900Y4493299D02*
G01*
X638299Y4511900D01*
X638299Y4538099D01*
X656900Y4556700D01*
X683099Y4556700D01*
X701700Y4538099D01*
X701700Y4511900D01*
X683099Y4493299D01*
G37*
G36*
X656900Y3893299D02*
G01*
X638299Y3911900D01*
X638299Y3938099D01*
X656900Y3956700D01*
X683099Y3956700D01*
X701700Y3938099D01*
X701700Y3911900D01*
X683099Y3893299D01*
G37*
G36*
X756900Y3893299D02*
G01*
X738299Y3911900D01*
X738299Y3938099D01*
X756900Y3956700D01*
X783100Y3956700D01*
X801700Y3938099D01*
X801700Y3911900D01*
X783100Y3893299D01*
G37*
G36*
X856899Y3893299D02*
G01*
X838299Y3911900D01*
X838299Y3938099D01*
X856899Y3956700D01*
X883100Y3956700D01*
X901700Y3938099D01*
X901700Y3911900D01*
X883100Y3893299D01*
G37*
G36*
X956899Y3893299D02*
G01*
X938299Y3911900D01*
X938299Y3938099D01*
X956899Y3956700D01*
X983100Y3956700D01*
X1001700Y3938099D01*
X1001700Y3911900D01*
X983100Y3893299D01*
G37*
G36*
X1056899Y3893299D02*
G01*
X1038299Y3911900D01*
X1038299Y3938099D01*
X1056899Y3956700D01*
X1083100Y3956700D01*
X1101700Y3938099D01*
X1101700Y3911900D01*
X1083100Y3893299D01*
G37*
G36*
X1156899Y3893299D02*
G01*
X1138299Y3911900D01*
X1138299Y3938099D01*
X1156899Y3956700D01*
X1183100Y3956700D01*
X1201700Y3938099D01*
X1201700Y3911900D01*
X1183100Y3893299D01*
G37*
G36*
X1256899Y3893299D02*
G01*
X1238299Y3911900D01*
X1238299Y3938099D01*
X1256899Y3956700D01*
X1283100Y3956700D01*
X1301700Y3938099D01*
X1301700Y3911900D01*
X1283100Y3893299D01*
G37*
G36*
X1356899Y3893299D02*
G01*
X1338299Y3911900D01*
X1338299Y3938099D01*
X1356899Y3956700D01*
X1383100Y3956700D01*
X1401700Y3938099D01*
X1401700Y3911900D01*
X1383100Y3893299D01*
G37*
G36*
X1456899Y3893299D02*
G01*
X1438299Y3911900D01*
X1438299Y3938099D01*
X1456899Y3956700D01*
X1483100Y3956700D01*
X1501700Y3938099D01*
X1501700Y3911900D01*
X1483100Y3893299D01*
G37*
G36*
X1556899Y3893299D02*
G01*
X1538299Y3911900D01*
X1538299Y3938099D01*
X1556899Y3956700D01*
X1583100Y3956700D01*
X1601700Y3938099D01*
X1601700Y3911900D01*
X1583100Y3893299D01*
G37*
G36*
X1656899Y3893299D02*
G01*
X1638299Y3911900D01*
X1638299Y3938099D01*
X1656899Y3956700D01*
X1683100Y3956700D01*
X1701700Y3938099D01*
X1701700Y3911900D01*
X1683100Y3893299D01*
G37*
G36*
X1756899Y3893299D02*
G01*
X1738299Y3911900D01*
X1738299Y3938099D01*
X1756899Y3956700D01*
X1783100Y3956700D01*
X1801700Y3938099D01*
X1801700Y3911900D01*
X1783100Y3893299D01*
G37*
G36*
X1856899Y3893299D02*
G01*
X1838299Y3911900D01*
X1838299Y3938099D01*
X1856899Y3956700D01*
X1883100Y3956700D01*
X1901700Y3938099D01*
X1901700Y3911900D01*
X1883100Y3893299D01*
G37*
G36*
X1956899Y3893299D02*
G01*
X1938299Y3911900D01*
X1938299Y3938099D01*
X1956899Y3956700D01*
X1983100Y3956700D01*
X2001700Y3938099D01*
X2001700Y3911900D01*
X1983100Y3893299D01*
G37*
G36*
X2056899Y3893299D02*
G01*
X2038299Y3911900D01*
X2038299Y3938099D01*
X2056899Y3956700D01*
X2083100Y3956700D01*
X2101700Y3938099D01*
X2101700Y3911900D01*
X2083100Y3893299D01*
G37*
G36*
X2156899Y3893299D02*
G01*
X2138299Y3911900D01*
X2138299Y3938099D01*
X2156899Y3956700D01*
X2183100Y3956700D01*
X2201700Y3938099D01*
X2201700Y3911900D01*
X2183100Y3893299D01*
G37*
G36*
X2256899Y3893299D02*
G01*
X2238299Y3911900D01*
X2238299Y3938099D01*
X2256899Y3956700D01*
X2283100Y3956700D01*
X2301700Y3938099D01*
X2301700Y3911900D01*
X2283100Y3893299D01*
G37*
G36*
X2356899Y3893299D02*
G01*
X2338299Y3911900D01*
X2338299Y3938099D01*
X2356899Y3956700D01*
X2383100Y3956700D01*
X2401700Y3938099D01*
X2401700Y3911900D01*
X2383100Y3893299D01*
G37*
M02*
